<?xml version="1.0" encoding="utf-8" standalone="no"?>
<!DOCTYPE svg PUBLIC "-//W3C//DTD SVG 1.1//EN"
  "http://www.w3.org/Graphics/SVG/1.1/DTD/svg11.dtd">
<svg xmlns:xlink="http://www.w3.org/1999/xlink" width="703.605312pt" height="515.018456pt" viewBox="0 0 703.605312 515.018456" xmlns="http://www.w3.org/2000/svg" version="1.1">
 <metadata>
  <rdf:RDF xmlns:dc="http://purl.org/dc/elements/1.1/" xmlns:cc="http://creativecommons.org/ns#" xmlns:rdf="http://www.w3.org/1999/02/22-rdf-syntax-ns#">
   <cc:Work>
    <dc:type rdf:resource="http://purl.org/dc/dcmitype/StillImage"/>
    <dc:date>2026-03-02T15:24:01.263326</dc:date>
    <dc:format>image/svg+xml</dc:format>
    <dc:creator>
     <cc:Agent>
      <dc:title>Matplotlib v3.10.6, https://matplotlib.org/</dc:title>
     </cc:Agent>
    </dc:creator>
   </cc:Work>
  </rdf:RDF>
 </metadata>
 <defs>
  <style type="text/css">*{stroke-linejoin: round; stroke-linecap: butt}</style>
 </defs>
 <g id="figure_1">
  <g id="patch_1">
   <path d="M 0 515.018456 
L 703.605312 515.018456 
L 703.605312 0 
L 0 0 
z
" style="fill: #ffffff"/>
  </g>
  <g id="axes_1">
   <g id="patch_2">
    <path d="M 35.475313 471.089362 
L 702.165312 471.089362 
L 702.165312 24.156562 
L 35.475313 24.156562 
z
" style="fill: #ffffff"/>
   </g>
   <g id="PathCollection_1">
    <defs>
     <path id="me84ff67c90" d="M 0 6.708204 
L 6.708204 0 
L 0 -6.708204 
L -6.708204 0 
z
" style="stroke: #000000; stroke-opacity: 0.85"/>
    </defs>
    <g clip-path="url(#p4a4e1fb543)">
     <use xlink:href="#me84ff67c90" x="65.779403" y="44.47169" style="fill: #ffa500; fill-opacity: 0.85; stroke: #000000; stroke-opacity: 0.85"/>
     <use xlink:href="#me84ff67c90" x="187.791498" y="44.47169" style="fill: #ffa500; fill-opacity: 0.85; stroke: #000000; stroke-opacity: 0.85"/>
     <use xlink:href="#me84ff67c90" x="307.151156" y="44.47169" style="fill: #ffa500; fill-opacity: 0.85; stroke: #000000; stroke-opacity: 0.85"/>
     <use xlink:href="#me84ff67c90" x="427.837032" y="44.47169" style="fill: #ffa500; fill-opacity: 0.85; stroke: #000000; stroke-opacity: 0.85"/>
     <use xlink:href="#me84ff67c90" x="549.849127" y="44.47169" style="fill: #ffa500; fill-opacity: 0.85; stroke: #000000; stroke-opacity: 0.85"/>
     <use xlink:href="#me84ff67c90" x="671.861222" y="44.47169" style="fill: #ffa500; fill-opacity: 0.85; stroke: #000000; stroke-opacity: 0.85"/>
    </g>
   </g>
   <g id="PathCollection_2">
    <defs>
     <path id="m9f780d4023" d="M -0 4.472136 
L 4.472136 -4.472136 
L -4.472136 -4.472136 
z
" style="stroke: #ff0000; stroke-opacity: 0.7"/>
    </defs>
    <g clip-path="url(#p4a4e1fb543)">
     <use xlink:href="#m9f780d4023" x="65.779403" y="44.475734" style="fill: #ff0000; fill-opacity: 0.7; stroke: #ff0000; stroke-opacity: 0.7"/>
     <use xlink:href="#m9f780d4023" x="187.791498" y="44.47554" style="fill: #ff0000; fill-opacity: 0.7; stroke: #ff0000; stroke-opacity: 0.7"/>
     <use xlink:href="#m9f780d4023" x="307.151156" y="44.475976" style="fill: #ff0000; fill-opacity: 0.7; stroke: #ff0000; stroke-opacity: 0.7"/>
     <use xlink:href="#m9f780d4023" x="427.837032" y="44.476" style="fill: #ff0000; fill-opacity: 0.7; stroke: #ff0000; stroke-opacity: 0.7"/>
     <use xlink:href="#m9f780d4023" x="549.849127" y="44.476" style="fill: #ff0000; fill-opacity: 0.7; stroke: #ff0000; stroke-opacity: 0.7"/>
     <use xlink:href="#m9f780d4023" x="671.861222" y="44.476025" style="fill: #ff0000; fill-opacity: 0.7; stroke: #ff0000; stroke-opacity: 0.7"/>
    </g>
   </g>
   <g id="PathCollection_3">
    <defs>
     <path id="mbfe8476c31" d="M -5 5 
L 5 5 
L 5 -5 
L -5 -5 
z
" style="stroke: #000000"/>
    </defs>
    <g clip-path="url(#p4a4e1fb543)">
     <use xlink:href="#mbfe8476c31" x="65.779403" y="44.472053" style="fill: #0000ff; stroke: #000000"/>
     <use xlink:href="#mbfe8476c31" x="187.791498" y="44.472029" style="fill: #0000ff; stroke: #000000"/>
     <use xlink:href="#mbfe8476c31" x="307.151156" y="44.472029" style="fill: #0000ff; stroke: #000000"/>
     <use xlink:href="#mbfe8476c31" x="427.837032" y="44.472029" style="fill: #0000ff; stroke: #000000"/>
     <use xlink:href="#mbfe8476c31" x="549.849127" y="44.472029" style="fill: #0000ff; stroke: #000000"/>
     <use xlink:href="#mbfe8476c31" x="671.861222" y="44.472029" style="fill: #0000ff; stroke: #000000"/>
    </g>
   </g>
   <g id="PathCollection_4">
    <defs>
     <path id="m7d5a0a4a04" d="M 0 -4.472136 
L -4.472136 4.472136 
L 4.472136 4.472136 
z
" style="stroke: #008000; stroke-opacity: 0.7"/>
    </defs>
    <g clip-path="url(#p4a4e1fb543)">
     <use xlink:href="#m7d5a0a4a04" x="65.779403" y="44.47169" style="fill: #008000; fill-opacity: 0.7; stroke: #008000; stroke-opacity: 0.7"/>
     <use xlink:href="#m7d5a0a4a04" x="187.791498" y="44.47169" style="fill: #008000; fill-opacity: 0.7; stroke: #008000; stroke-opacity: 0.7"/>
     <use xlink:href="#m7d5a0a4a04" x="307.151156" y="44.47169" style="fill: #008000; fill-opacity: 0.7; stroke: #008000; stroke-opacity: 0.7"/>
     <use xlink:href="#m7d5a0a4a04" x="427.837032" y="44.47169" style="fill: #008000; fill-opacity: 0.7; stroke: #008000; stroke-opacity: 0.7"/>
     <use xlink:href="#m7d5a0a4a04" x="549.849127" y="44.47169" style="fill: #008000; fill-opacity: 0.7; stroke: #008000; stroke-opacity: 0.7"/>
     <use xlink:href="#m7d5a0a4a04" x="671.861222" y="44.47169" style="fill: #008000; fill-opacity: 0.7; stroke: #008000; stroke-opacity: 0.7"/>
    </g>
   </g>
   <g id="PathCollection_5">
    <defs>
     <path id="C0_0_47b0f1982a" d="M 0 5.477226 
C 1.452577 5.477226 2.845856 4.900111 3.872983 3.872983 
C 4.900111 2.845856 5.477226 1.452577 5.477226 -0 
C 5.477226 -1.452577 4.900111 -2.845856 3.872983 -3.872983 
C 2.845856 -4.900111 1.452577 -5.477226 0 -5.477226 
C -1.452577 -5.477226 -2.845856 -4.900111 -3.872983 -3.872983 
C -4.900111 -2.845856 -5.477226 -1.452577 -5.477226 0 
C -5.477226 1.452577 -4.900111 2.845856 -3.872983 3.872983 
C -2.845856 4.900111 -1.452577 5.477226 0 5.477226 
z
"/>
    </defs>
    <g clip-path="url(#p4a4e1fb543)">
     <use xlink:href="#C0_0_47b0f1982a" x="65.779403" y="247.622962" style="fill: none; stroke: #000000; stroke-opacity: 0.95; stroke-width: 1.6"/>
    </g>
    <g clip-path="url(#p4a4e1fb543)">
     <use xlink:href="#C0_0_47b0f1982a" x="187.791498" y="247.622962" style="fill: none; stroke: #000000; stroke-opacity: 0.95; stroke-width: 1.6"/>
    </g>
    <g clip-path="url(#p4a4e1fb543)">
     <use xlink:href="#C0_0_47b0f1982a" x="307.151156" y="450.774235" style="fill: none; stroke: #000000; stroke-opacity: 0.95; stroke-width: 1.6"/>
    </g>
    <g clip-path="url(#p4a4e1fb543)">
     <use xlink:href="#C0_0_47b0f1982a" x="427.837032" y="450.774235" style="fill: none; stroke: #000000; stroke-opacity: 0.95; stroke-width: 1.6"/>
    </g>
    <g clip-path="url(#p4a4e1fb543)">
     <use xlink:href="#C0_0_47b0f1982a" x="549.849127" y="247.622962" style="fill: none; stroke: #000000; stroke-opacity: 0.95; stroke-width: 1.6"/>
    </g>
    <g clip-path="url(#p4a4e1fb543)">
     <use xlink:href="#C0_0_47b0f1982a" x="671.861222" y="247.622962" style="fill: none; stroke: #000000; stroke-opacity: 0.95; stroke-width: 1.6"/>
    </g>
   </g>
   <g id="matplotlib.axis_1">
    <g id="xtick_1">
     <g id="line2d_1">
      <path d="M 65.779403 471.089362 
L 65.779403 24.156562 
" clip-path="url(#p4a4e1fb543)" style="fill: none; stroke-dasharray: 1.85,0.8; stroke-dashoffset: 0; stroke: #b0b0b0; stroke-opacity: 0.7; stroke-width: 0.5"/>
     </g>
     <g id="line2d_2">
      <defs>
       <path id="mf9abd32e2e" d="M 0 0 
L 0 3.5 
" style="stroke: #000000; stroke-width: 0.8"/>
      </defs>
      <g>
       <use xlink:href="#mf9abd32e2e" x="65.779403" y="471.089362" style="stroke: #000000; stroke-width: 0.8"/>
      </g>
     </g>
     <g id="text_1">
      <!-- 2024 -->
      <g transform="translate(44.146903 491.006706) scale(0.17 -0.17)">
       <defs>
        <path id="DejaVuSans-32" d="M 1228 531 
L 3431 531 
L 3431 0 
L 469 0 
L 469 531 
Q 828 903 1448 1529 
Q 2069 2156 2228 2338 
Q 2531 2678 2651 2914 
Q 2772 3150 2772 3378 
Q 2772 3750 2511 3984 
Q 2250 4219 1831 4219 
Q 1534 4219 1204 4116 
Q 875 4013 500 3803 
L 500 4441 
Q 881 4594 1212 4672 
Q 1544 4750 1819 4750 
Q 2544 4750 2975 4387 
Q 3406 4025 3406 3419 
Q 3406 3131 3298 2873 
Q 3191 2616 2906 2266 
Q 2828 2175 2409 1742 
Q 1991 1309 1228 531 
z
" transform="scale(0.015625)"/>
        <path id="DejaVuSans-30" d="M 2034 4250 
Q 1547 4250 1301 3770 
Q 1056 3291 1056 2328 
Q 1056 1369 1301 889 
Q 1547 409 2034 409 
Q 2525 409 2770 889 
Q 3016 1369 3016 2328 
Q 3016 3291 2770 3770 
Q 2525 4250 2034 4250 
z
M 2034 4750 
Q 2819 4750 3233 4129 
Q 3647 3509 3647 2328 
Q 3647 1150 3233 529 
Q 2819 -91 2034 -91 
Q 1250 -91 836 529 
Q 422 1150 422 2328 
Q 422 3509 836 4129 
Q 1250 4750 2034 4750 
z
" transform="scale(0.015625)"/>
        <path id="DejaVuSans-34" d="M 2419 4116 
L 825 1625 
L 2419 1625 
L 2419 4116 
z
M 2253 4666 
L 3047 4666 
L 3047 1625 
L 3713 1625 
L 3713 1100 
L 3047 1100 
L 3047 0 
L 2419 0 
L 2419 1100 
L 313 1100 
L 313 1709 
L 2253 4666 
z
" transform="scale(0.015625)"/>
       </defs>
       <use xlink:href="#DejaVuSans-32"/>
       <use xlink:href="#DejaVuSans-30" transform="translate(63.623047 0)"/>
       <use xlink:href="#DejaVuSans-32" transform="translate(127.246094 0)"/>
       <use xlink:href="#DejaVuSans-34" transform="translate(190.869141 0)"/>
      </g>
      <!-- Q3 -->
      <g transform="translate(53.680185 510.042987) scale(0.17 -0.17)">
       <defs>
        <path id="DejaVuSans-51" d="M 2522 4238 
Q 1834 4238 1429 3725 
Q 1025 3213 1025 2328 
Q 1025 1447 1429 934 
Q 1834 422 2522 422 
Q 3209 422 3611 934 
Q 4013 1447 4013 2328 
Q 4013 3213 3611 3725 
Q 3209 4238 2522 4238 
z
M 3406 84 
L 4238 -825 
L 3475 -825 
L 2784 -78 
Q 2681 -84 2626 -87 
Q 2572 -91 2522 -91 
Q 1538 -91 948 567 
Q 359 1225 359 2328 
Q 359 3434 948 4092 
Q 1538 4750 2522 4750 
Q 3503 4750 4090 4092 
Q 4678 3434 4678 2328 
Q 4678 1516 4351 937 
Q 4025 359 3406 84 
z
" transform="scale(0.015625)"/>
        <path id="DejaVuSans-33" d="M 2597 2516 
Q 3050 2419 3304 2112 
Q 3559 1806 3559 1356 
Q 3559 666 3084 287 
Q 2609 -91 1734 -91 
Q 1441 -91 1130 -33 
Q 819 25 488 141 
L 488 750 
Q 750 597 1062 519 
Q 1375 441 1716 441 
Q 2309 441 2620 675 
Q 2931 909 2931 1356 
Q 2931 1769 2642 2001 
Q 2353 2234 1838 2234 
L 1294 2234 
L 1294 2753 
L 1863 2753 
Q 2328 2753 2575 2939 
Q 2822 3125 2822 3475 
Q 2822 3834 2567 4026 
Q 2313 4219 1838 4219 
Q 1578 4219 1281 4162 
Q 984 4106 628 3988 
L 628 4550 
Q 988 4650 1302 4700 
Q 1616 4750 1894 4750 
Q 2613 4750 3031 4423 
Q 3450 4097 3450 3541 
Q 3450 3153 3228 2886 
Q 3006 2619 2597 2516 
z
" transform="scale(0.015625)"/>
       </defs>
       <use xlink:href="#DejaVuSans-51"/>
       <use xlink:href="#DejaVuSans-33" transform="translate(78.710938 0)"/>
      </g>
     </g>
    </g>
    <g id="xtick_2">
     <g id="line2d_3">
      <path d="M 187.791498 471.089362 
L 187.791498 24.156562 
" clip-path="url(#p4a4e1fb543)" style="fill: none; stroke-dasharray: 1.85,0.8; stroke-dashoffset: 0; stroke: #b0b0b0; stroke-opacity: 0.7; stroke-width: 0.5"/>
     </g>
     <g id="line2d_4">
      <g>
       <use xlink:href="#mf9abd32e2e" x="187.791498" y="471.089362" style="stroke: #000000; stroke-width: 0.8"/>
      </g>
     </g>
     <g id="text_2">
      <!-- 2024 -->
      <g transform="translate(166.158998 491.006706) scale(0.17 -0.17)">
       <use xlink:href="#DejaVuSans-32"/>
       <use xlink:href="#DejaVuSans-30" transform="translate(63.623047 0)"/>
       <use xlink:href="#DejaVuSans-32" transform="translate(127.246094 0)"/>
       <use xlink:href="#DejaVuSans-34" transform="translate(190.869141 0)"/>
      </g>
      <!-- Q4 -->
      <g transform="translate(175.692279 510.042987) scale(0.17 -0.17)">
       <use xlink:href="#DejaVuSans-51"/>
       <use xlink:href="#DejaVuSans-34" transform="translate(78.710938 0)"/>
      </g>
     </g>
    </g>
    <g id="xtick_3">
     <g id="line2d_5">
      <path d="M 307.151156 471.089362 
L 307.151156 24.156562 
" clip-path="url(#p4a4e1fb543)" style="fill: none; stroke-dasharray: 1.85,0.8; stroke-dashoffset: 0; stroke: #b0b0b0; stroke-opacity: 0.7; stroke-width: 0.5"/>
     </g>
     <g id="line2d_6">
      <g>
       <use xlink:href="#mf9abd32e2e" x="307.151156" y="471.089362" style="stroke: #000000; stroke-width: 0.8"/>
      </g>
     </g>
     <g id="text_3">
      <!-- 2025 -->
      <g transform="translate(285.518656 491.006706) scale(0.17 -0.17)">
       <defs>
        <path id="DejaVuSans-35" d="M 691 4666 
L 3169 4666 
L 3169 4134 
L 1269 4134 
L 1269 2991 
Q 1406 3038 1543 3061 
Q 1681 3084 1819 3084 
Q 2600 3084 3056 2656 
Q 3513 2228 3513 1497 
Q 3513 744 3044 326 
Q 2575 -91 1722 -91 
Q 1428 -91 1123 -41 
Q 819 9 494 109 
L 494 744 
Q 775 591 1075 516 
Q 1375 441 1709 441 
Q 2250 441 2565 725 
Q 2881 1009 2881 1497 
Q 2881 1984 2565 2268 
Q 2250 2553 1709 2553 
Q 1456 2553 1204 2497 
Q 953 2441 691 2322 
L 691 4666 
z
" transform="scale(0.015625)"/>
       </defs>
       <use xlink:href="#DejaVuSans-32"/>
       <use xlink:href="#DejaVuSans-30" transform="translate(63.623047 0)"/>
       <use xlink:href="#DejaVuSans-32" transform="translate(127.246094 0)"/>
       <use xlink:href="#DejaVuSans-35" transform="translate(190.869141 0)"/>
      </g>
      <!-- Q1 -->
      <g transform="translate(295.051937 510.042987) scale(0.17 -0.17)">
       <defs>
        <path id="DejaVuSans-31" d="M 794 531 
L 1825 531 
L 1825 4091 
L 703 3866 
L 703 4441 
L 1819 4666 
L 2450 4666 
L 2450 531 
L 3481 531 
L 3481 0 
L 794 0 
L 794 531 
z
" transform="scale(0.015625)"/>
       </defs>
       <use xlink:href="#DejaVuSans-51"/>
       <use xlink:href="#DejaVuSans-31" transform="translate(78.710938 0)"/>
      </g>
     </g>
    </g>
    <g id="xtick_4">
     <g id="line2d_7">
      <path d="M 427.837032 471.089362 
L 427.837032 24.156562 
" clip-path="url(#p4a4e1fb543)" style="fill: none; stroke-dasharray: 1.85,0.8; stroke-dashoffset: 0; stroke: #b0b0b0; stroke-opacity: 0.7; stroke-width: 0.5"/>
     </g>
     <g id="line2d_8">
      <g>
       <use xlink:href="#mf9abd32e2e" x="427.837032" y="471.089362" style="stroke: #000000; stroke-width: 0.8"/>
      </g>
     </g>
     <g id="text_4">
      <!-- 2025 -->
      <g transform="translate(406.204532 491.006706) scale(0.17 -0.17)">
       <use xlink:href="#DejaVuSans-32"/>
       <use xlink:href="#DejaVuSans-30" transform="translate(63.623047 0)"/>
       <use xlink:href="#DejaVuSans-32" transform="translate(127.246094 0)"/>
       <use xlink:href="#DejaVuSans-35" transform="translate(190.869141 0)"/>
      </g>
      <!-- Q2 -->
      <g transform="translate(415.737813 510.042987) scale(0.17 -0.17)">
       <use xlink:href="#DejaVuSans-51"/>
       <use xlink:href="#DejaVuSans-32" transform="translate(78.710938 0)"/>
      </g>
     </g>
    </g>
    <g id="xtick_5">
     <g id="line2d_9">
      <path d="M 549.849127 471.089362 
L 549.849127 24.156562 
" clip-path="url(#p4a4e1fb543)" style="fill: none; stroke-dasharray: 1.85,0.8; stroke-dashoffset: 0; stroke: #b0b0b0; stroke-opacity: 0.7; stroke-width: 0.5"/>
     </g>
     <g id="line2d_10">
      <g>
       <use xlink:href="#mf9abd32e2e" x="549.849127" y="471.089362" style="stroke: #000000; stroke-width: 0.8"/>
      </g>
     </g>
     <g id="text_5">
      <!-- 2025 -->
      <g transform="translate(528.216627 491.006706) scale(0.17 -0.17)">
       <use xlink:href="#DejaVuSans-32"/>
       <use xlink:href="#DejaVuSans-30" transform="translate(63.623047 0)"/>
       <use xlink:href="#DejaVuSans-32" transform="translate(127.246094 0)"/>
       <use xlink:href="#DejaVuSans-35" transform="translate(190.869141 0)"/>
      </g>
      <!-- Q3 -->
      <g transform="translate(537.749908 510.042987) scale(0.17 -0.17)">
       <use xlink:href="#DejaVuSans-51"/>
       <use xlink:href="#DejaVuSans-33" transform="translate(78.710938 0)"/>
      </g>
     </g>
    </g>
    <g id="xtick_6">
     <g id="line2d_11">
      <path d="M 671.861222 471.089362 
L 671.861222 24.156562 
" clip-path="url(#p4a4e1fb543)" style="fill: none; stroke-dasharray: 1.85,0.8; stroke-dashoffset: 0; stroke: #b0b0b0; stroke-opacity: 0.7; stroke-width: 0.5"/>
     </g>
     <g id="line2d_12">
      <g>
       <use xlink:href="#mf9abd32e2e" x="671.861222" y="471.089362" style="stroke: #000000; stroke-width: 0.8"/>
      </g>
     </g>
     <g id="text_6">
      <!-- 2025 -->
      <g transform="translate(650.228722 491.006706) scale(0.17 -0.17)">
       <use xlink:href="#DejaVuSans-32"/>
       <use xlink:href="#DejaVuSans-30" transform="translate(63.623047 0)"/>
       <use xlink:href="#DejaVuSans-32" transform="translate(127.246094 0)"/>
       <use xlink:href="#DejaVuSans-35" transform="translate(190.869141 0)"/>
      </g>
      <!-- Q4 -->
      <g transform="translate(659.762003 510.042987) scale(0.17 -0.17)">
       <use xlink:href="#DejaVuSans-51"/>
       <use xlink:href="#DejaVuSans-34" transform="translate(78.710938 0)"/>
      </g>
     </g>
    </g>
   </g>
   <g id="matplotlib.axis_2">
    <g id="ytick_1">
     <g id="line2d_13">
      <path d="M 35.475313 450.774235 
L 702.165312 450.774235 
" clip-path="url(#p4a4e1fb543)" style="fill: none; stroke-dasharray: 1.85,0.8; stroke-dashoffset: 0; stroke: #b0b0b0; stroke-opacity: 0.7; stroke-width: 0.5"/>
     </g>
     <g id="line2d_14">
      <defs>
       <path id="maed699d3e8" d="M 0 0 
L -3.5 0 
" style="stroke: #000000; stroke-width: 0.8"/>
      </defs>
      <g>
       <use xlink:href="#maed699d3e8" x="35.475313" y="450.774235" style="stroke: #000000; stroke-width: 0.8"/>
      </g>
     </g>
     <g id="text_7">
      <!-- 0.0 -->
      <g transform="translate(1.44 457.232907) scale(0.17 -0.17)">
       <defs>
        <path id="DejaVuSans-2e" d="M 684 794 
L 1344 794 
L 1344 0 
L 684 0 
L 684 794 
z
" transform="scale(0.015625)"/>
       </defs>
       <use xlink:href="#DejaVuSans-30"/>
       <use xlink:href="#DejaVuSans-2e" transform="translate(63.623047 0)"/>
       <use xlink:href="#DejaVuSans-30" transform="translate(95.410156 0)"/>
      </g>
     </g>
    </g>
    <g id="ytick_2">
     <g id="line2d_15">
      <path d="M 35.475313 369.513726 
L 702.165312 369.513726 
" clip-path="url(#p4a4e1fb543)" style="fill: none; stroke-dasharray: 1.85,0.8; stroke-dashoffset: 0; stroke: #b0b0b0; stroke-opacity: 0.7; stroke-width: 0.5"/>
     </g>
     <g id="line2d_16">
      <g>
       <use xlink:href="#maed699d3e8" x="35.475313" y="369.513726" style="stroke: #000000; stroke-width: 0.8"/>
      </g>
     </g>
     <g id="text_8">
      <!-- 0.1 -->
      <g transform="translate(1.44 375.972398) scale(0.17 -0.17)">
       <use xlink:href="#DejaVuSans-30"/>
       <use xlink:href="#DejaVuSans-2e" transform="translate(63.623047 0)"/>
       <use xlink:href="#DejaVuSans-31" transform="translate(95.410156 0)"/>
      </g>
     </g>
    </g>
    <g id="ytick_3">
     <g id="line2d_17">
      <path d="M 35.475313 288.253217 
L 702.165312 288.253217 
" clip-path="url(#p4a4e1fb543)" style="fill: none; stroke-dasharray: 1.85,0.8; stroke-dashoffset: 0; stroke: #b0b0b0; stroke-opacity: 0.7; stroke-width: 0.5"/>
     </g>
     <g id="line2d_18">
      <g>
       <use xlink:href="#maed699d3e8" x="35.475313" y="288.253217" style="stroke: #000000; stroke-width: 0.8"/>
      </g>
     </g>
     <g id="text_9">
      <!-- 0.2 -->
      <g transform="translate(1.44 294.711889) scale(0.17 -0.17)">
       <use xlink:href="#DejaVuSans-30"/>
       <use xlink:href="#DejaVuSans-2e" transform="translate(63.623047 0)"/>
       <use xlink:href="#DejaVuSans-32" transform="translate(95.410156 0)"/>
      </g>
     </g>
    </g>
    <g id="ytick_4">
     <g id="line2d_19">
      <path d="M 35.475313 206.992708 
L 702.165312 206.992708 
" clip-path="url(#p4a4e1fb543)" style="fill: none; stroke-dasharray: 1.85,0.8; stroke-dashoffset: 0; stroke: #b0b0b0; stroke-opacity: 0.7; stroke-width: 0.5"/>
     </g>
     <g id="line2d_20">
      <g>
       <use xlink:href="#maed699d3e8" x="35.475313" y="206.992708" style="stroke: #000000; stroke-width: 0.8"/>
      </g>
     </g>
     <g id="text_10">
      <!-- 0.3 -->
      <g transform="translate(1.44 213.45138) scale(0.17 -0.17)">
       <use xlink:href="#DejaVuSans-30"/>
       <use xlink:href="#DejaVuSans-2e" transform="translate(63.623047 0)"/>
       <use xlink:href="#DejaVuSans-33" transform="translate(95.410156 0)"/>
      </g>
     </g>
    </g>
    <g id="ytick_5">
     <g id="line2d_21">
      <path d="M 35.475313 125.732199 
L 702.165312 125.732199 
" clip-path="url(#p4a4e1fb543)" style="fill: none; stroke-dasharray: 1.85,0.8; stroke-dashoffset: 0; stroke: #b0b0b0; stroke-opacity: 0.7; stroke-width: 0.5"/>
     </g>
     <g id="line2d_22">
      <g>
       <use xlink:href="#maed699d3e8" x="35.475313" y="125.732199" style="stroke: #000000; stroke-width: 0.8"/>
      </g>
     </g>
     <g id="text_11">
      <!-- 0.4 -->
      <g transform="translate(1.44 132.190871) scale(0.17 -0.17)">
       <use xlink:href="#DejaVuSans-30"/>
       <use xlink:href="#DejaVuSans-2e" transform="translate(63.623047 0)"/>
       <use xlink:href="#DejaVuSans-34" transform="translate(95.410156 0)"/>
      </g>
     </g>
    </g>
    <g id="ytick_6">
     <g id="line2d_23">
      <path d="M 35.475313 44.47169 
L 702.165312 44.47169 
" clip-path="url(#p4a4e1fb543)" style="fill: none; stroke-dasharray: 1.85,0.8; stroke-dashoffset: 0; stroke: #b0b0b0; stroke-opacity: 0.7; stroke-width: 0.5"/>
     </g>
     <g id="line2d_24">
      <g>
       <use xlink:href="#maed699d3e8" x="35.475313" y="44.47169" style="stroke: #000000; stroke-width: 0.8"/>
      </g>
     </g>
     <g id="text_12">
      <!-- 0.5 -->
      <g transform="translate(1.44 50.930362) scale(0.17 -0.17)">
       <use xlink:href="#DejaVuSans-30"/>
       <use xlink:href="#DejaVuSans-2e" transform="translate(63.623047 0)"/>
       <use xlink:href="#DejaVuSans-35" transform="translate(95.410156 0)"/>
      </g>
     </g>
    </g>
   </g>
   <g id="patch_3">
    <path d="M 35.475313 471.089362 
L 35.475313 24.156562 
" style="fill: none; stroke: #000000; stroke-width: 0.8; stroke-linejoin: miter; stroke-linecap: square"/>
   </g>
   <g id="patch_4">
    <path d="M 702.165312 471.089362 
L 702.165312 24.156562 
" style="fill: none; stroke: #000000; stroke-width: 0.8; stroke-linejoin: miter; stroke-linecap: square"/>
   </g>
   <g id="patch_5">
    <path d="M 35.475312 471.089362 
L 702.165312 471.089362 
" style="fill: none; stroke: #000000; stroke-width: 0.8; stroke-linejoin: miter; stroke-linecap: square"/>
   </g>
   <g id="patch_6">
    <path d="M 35.475312 24.156562 
L 702.165312 24.156562 
" style="fill: none; stroke: #000000; stroke-width: 0.8; stroke-linejoin: miter; stroke-linecap: square"/>
   </g>
   <g id="text_13">
    <!-- theta_alpha_OCA -->
    <g transform="translate(264.330625 18.156562) scale(0.22 -0.22)">
     <defs>
      <path id="DejaVuSans-Bold-74" d="M 1759 4494 
L 1759 3500 
L 2913 3500 
L 2913 2700 
L 1759 2700 
L 1759 1216 
Q 1759 972 1856 886 
Q 1953 800 2241 800 
L 2816 800 
L 2816 0 
L 1856 0 
Q 1194 0 917 276 
Q 641 553 641 1216 
L 641 2700 
L 84 2700 
L 84 3500 
L 641 3500 
L 641 4494 
L 1759 4494 
z
" transform="scale(0.015625)"/>
      <path id="DejaVuSans-Bold-68" d="M 4056 2131 
L 4056 0 
L 2931 0 
L 2931 347 
L 2931 1625 
Q 2931 2084 2911 2256 
Q 2891 2428 2841 2509 
Q 2775 2619 2662 2680 
Q 2550 2741 2406 2741 
Q 2056 2741 1856 2470 
Q 1656 2200 1656 1722 
L 1656 0 
L 538 0 
L 538 4863 
L 1656 4863 
L 1656 2988 
Q 1909 3294 2193 3439 
Q 2478 3584 2822 3584 
Q 3428 3584 3742 3212 
Q 4056 2841 4056 2131 
z
" transform="scale(0.015625)"/>
      <path id="DejaVuSans-Bold-65" d="M 4031 1759 
L 4031 1441 
L 1416 1441 
Q 1456 1047 1700 850 
Q 1944 653 2381 653 
Q 2734 653 3104 758 
Q 3475 863 3866 1075 
L 3866 213 
Q 3469 63 3072 -14 
Q 2675 -91 2278 -91 
Q 1328 -91 801 392 
Q 275 875 275 1747 
Q 275 2603 792 3093 
Q 1309 3584 2216 3584 
Q 3041 3584 3536 3087 
Q 4031 2591 4031 1759 
z
M 2881 2131 
Q 2881 2450 2695 2645 
Q 2509 2841 2209 2841 
Q 1884 2841 1681 2658 
Q 1478 2475 1428 2131 
L 2881 2131 
z
" transform="scale(0.015625)"/>
      <path id="DejaVuSans-Bold-61" d="M 2106 1575 
Q 1756 1575 1579 1456 
Q 1403 1338 1403 1106 
Q 1403 894 1545 773 
Q 1688 653 1941 653 
Q 2256 653 2472 879 
Q 2688 1106 2688 1447 
L 2688 1575 
L 2106 1575 
z
M 3816 1997 
L 3816 0 
L 2688 0 
L 2688 519 
Q 2463 200 2181 54 
Q 1900 -91 1497 -91 
Q 953 -91 614 226 
Q 275 544 275 1050 
Q 275 1666 698 1953 
Q 1122 2241 2028 2241 
L 2688 2241 
L 2688 2328 
Q 2688 2594 2478 2717 
Q 2269 2841 1825 2841 
Q 1466 2841 1156 2769 
Q 847 2697 581 2553 
L 581 3406 
Q 941 3494 1303 3539 
Q 1666 3584 2028 3584 
Q 2975 3584 3395 3211 
Q 3816 2838 3816 1997 
z
" transform="scale(0.015625)"/>
      <path id="DejaVuSans-Bold-5f" d="M 3200 -916 
L 3200 -1509 
L 0 -1509 
L 0 -916 
L 3200 -916 
z
" transform="scale(0.015625)"/>
      <path id="DejaVuSans-Bold-6c" d="M 538 4863 
L 1656 4863 
L 1656 0 
L 538 0 
L 538 4863 
z
" transform="scale(0.015625)"/>
      <path id="DejaVuSans-Bold-70" d="M 1656 506 
L 1656 -1331 
L 538 -1331 
L 538 3500 
L 1656 3500 
L 1656 2988 
Q 1888 3294 2169 3439 
Q 2450 3584 2816 3584 
Q 3463 3584 3878 3070 
Q 4294 2556 4294 1747 
Q 4294 938 3878 423 
Q 3463 -91 2816 -91 
Q 2450 -91 2169 54 
Q 1888 200 1656 506 
z
M 2400 2772 
Q 2041 2772 1848 2508 
Q 1656 2244 1656 1747 
Q 1656 1250 1848 986 
Q 2041 722 2400 722 
Q 2759 722 2948 984 
Q 3138 1247 3138 1747 
Q 3138 2247 2948 2509 
Q 2759 2772 2400 2772 
z
" transform="scale(0.015625)"/>
      <path id="DejaVuSans-Bold-4f" d="M 2719 3878 
Q 2169 3878 1866 3472 
Q 1563 3066 1563 2328 
Q 1563 1594 1866 1187 
Q 2169 781 2719 781 
Q 3272 781 3575 1187 
Q 3878 1594 3878 2328 
Q 3878 3066 3575 3472 
Q 3272 3878 2719 3878 
z
M 2719 4750 
Q 3844 4750 4481 4106 
Q 5119 3463 5119 2328 
Q 5119 1197 4481 553 
Q 3844 -91 2719 -91 
Q 1597 -91 958 553 
Q 319 1197 319 2328 
Q 319 3463 958 4106 
Q 1597 4750 2719 4750 
z
" transform="scale(0.015625)"/>
      <path id="DejaVuSans-Bold-43" d="M 4288 256 
Q 3956 84 3597 -3 
Q 3238 -91 2847 -91 
Q 1681 -91 1000 561 
Q 319 1213 319 2328 
Q 319 3447 1000 4098 
Q 1681 4750 2847 4750 
Q 3238 4750 3597 4662 
Q 3956 4575 4288 4403 
L 4288 3438 
Q 3953 3666 3628 3772 
Q 3303 3878 2944 3878 
Q 2300 3878 1931 3465 
Q 1563 3053 1563 2328 
Q 1563 1606 1931 1193 
Q 2300 781 2944 781 
Q 3303 781 3628 887 
Q 3953 994 4288 1222 
L 4288 256 
z
" transform="scale(0.015625)"/>
      <path id="DejaVuSans-Bold-41" d="M 3419 850 
L 1538 850 
L 1241 0 
L 31 0 
L 1759 4666 
L 3194 4666 
L 4922 0 
L 3713 0 
L 3419 850 
z
M 1838 1716 
L 3116 1716 
L 2478 3572 
L 1838 1716 
z
" transform="scale(0.015625)"/>
     </defs>
     <use xlink:href="#DejaVuSans-Bold-74"/>
     <use xlink:href="#DejaVuSans-Bold-68" transform="translate(47.802734 0)"/>
     <use xlink:href="#DejaVuSans-Bold-65" transform="translate(118.994141 0)"/>
     <use xlink:href="#DejaVuSans-Bold-74" transform="translate(186.816406 0)"/>
     <use xlink:href="#DejaVuSans-Bold-61" transform="translate(234.619141 0)"/>
     <use xlink:href="#DejaVuSans-Bold-5f" transform="translate(302.099609 0)"/>
     <use xlink:href="#DejaVuSans-Bold-61" transform="translate(352.099609 0)"/>
     <use xlink:href="#DejaVuSans-Bold-6c" transform="translate(419.580078 0)"/>
     <use xlink:href="#DejaVuSans-Bold-70" transform="translate(453.857422 0)"/>
     <use xlink:href="#DejaVuSans-Bold-68" transform="translate(525.439453 0)"/>
     <use xlink:href="#DejaVuSans-Bold-61" transform="translate(596.630859 0)"/>
     <use xlink:href="#DejaVuSans-Bold-5f" transform="translate(664.111328 0)"/>
     <use xlink:href="#DejaVuSans-Bold-4f" transform="translate(714.111328 0)"/>
     <use xlink:href="#DejaVuSans-Bold-43" transform="translate(799.121094 0)"/>
     <use xlink:href="#DejaVuSans-Bold-41" transform="translate(872.509766 0)"/>
    </g>
   </g>
  </g>
 </g>
 <defs>
  <clipPath id="p4a4e1fb543">
   <rect x="35.475313" y="24.156562" width="666.69" height="446.9328"/>
  </clipPath>
 </defs>
</svg>
