<?xml version="1.0" encoding="utf-8" standalone="no"?>
<!DOCTYPE svg PUBLIC "-//W3C//DTD SVG 1.1//EN"
  "http://www.w3.org/Graphics/SVG/1.1/DTD/svg11.dtd">
<svg xmlns:xlink="http://www.w3.org/1999/xlink" width="703.49625pt" height="515.018456pt" viewBox="0 0 703.49625 515.018456" xmlns="http://www.w3.org/2000/svg" version="1.1">
 <metadata>
  <rdf:RDF xmlns:dc="http://purl.org/dc/elements/1.1/" xmlns:cc="http://creativecommons.org/ns#" xmlns:rdf="http://www.w3.org/1999/02/22-rdf-syntax-ns#">
   <cc:Work>
    <dc:type rdf:resource="http://purl.org/dc/dcmitype/StillImage"/>
    <dc:date>2026-03-02T15:24:06.094270</dc:date>
    <dc:format>image/svg+xml</dc:format>
    <dc:creator>
     <cc:Agent>
      <dc:title>Matplotlib v3.10.6, https://matplotlib.org/</dc:title>
     </cc:Agent>
    </dc:creator>
   </cc:Work>
  </rdf:RDF>
 </metadata>
 <defs>
  <style type="text/css">*{stroke-linejoin: round; stroke-linecap: butt}</style>
 </defs>
 <g id="figure_1">
  <g id="patch_1">
   <path d="M 0 515.018456 
L 703.49625 515.018456 
L 703.49625 0 
L 0 0 
z
" style="fill: #ffffff"/>
  </g>
  <g id="axes_1">
   <g id="patch_2">
    <path d="M 19.25625 471.089362 
L 702.05625 471.089362 
L 702.05625 24.156562 
L 19.25625 24.156562 
z
" style="fill: #ffffff"/>
   </g>
   <g id="PathCollection_1">
    <defs>
     <path id="m84dea7f424" d="M 0 6.708204 
L 6.708204 0 
L 0 -6.708204 
L -6.708204 0 
z
" style="stroke: #000000; stroke-opacity: 0.85"/>
    </defs>
    <g clip-path="url(#pc3d88e153d)">
     <use xlink:href="#m84dea7f424" x="412.194737" y="424.250431" style="fill: #ffa500; fill-opacity: 0.85; stroke: #000000; stroke-opacity: 0.85"/>
     <use xlink:href="#m84dea7f424" x="464.299581" y="427.65593" style="fill: #ffa500; fill-opacity: 0.85; stroke: #000000; stroke-opacity: 0.85"/>
     <use xlink:href="#m84dea7f424" x="464.300122" y="-1" style="fill: #ffa500; fill-opacity: 0.85; stroke: #000000; stroke-opacity: 0.85"/>
     <use xlink:href="#m84dea7f424" x="566.80963" y="-1" style="fill: #ffa500; fill-opacity: 0.85; stroke: #000000; stroke-opacity: 0.85"/>
     <use xlink:href="#m84dea7f424" x="566.810198" y="444.762204" style="fill: #ffa500; fill-opacity: 0.85; stroke: #000000; stroke-opacity: 0.85"/>
     <use xlink:href="#m84dea7f424" x="618.915042" y="445.17525" style="fill: #ffa500; fill-opacity: 0.85; stroke: #000000; stroke-opacity: 0.85"/>
     <use xlink:href="#m84dea7f424" x="671.019886" y="445.160736" style="fill: #ffa500; fill-opacity: 0.85; stroke: #000000; stroke-opacity: 0.85"/>
    </g>
   </g>
   <g id="PathCollection_2">
    <defs>
     <path id="m153ec859af" d="M -0 4.472136 
L 4.472136 -4.472136 
L -4.472136 -4.472136 
z
" style="stroke: #ff0000; stroke-opacity: 0.7"/>
    </defs>
    <g clip-path="url(#pc3d88e153d)">
     <use xlink:href="#m153ec859af" x="412.194737" y="450.673657" style="fill: #ff0000; fill-opacity: 0.7; stroke: #ff0000; stroke-opacity: 0.7"/>
     <use xlink:href="#m153ec859af" x="464.299581" y="450.774235" style="fill: #ff0000; fill-opacity: 0.7; stroke: #ff0000; stroke-opacity: 0.7"/>
     <use xlink:href="#m153ec859af" x="515.271711" y="450.719261" style="fill: #ff0000; fill-opacity: 0.7; stroke: #ff0000; stroke-opacity: 0.7"/>
     <use xlink:href="#m153ec859af" x="566.810198" y="450.706176" style="fill: #ff0000; fill-opacity: 0.7; stroke: #ff0000; stroke-opacity: 0.7"/>
     <use xlink:href="#m153ec859af" x="618.915042" y="450.689791" style="fill: #ff0000; fill-opacity: 0.7; stroke: #ff0000; stroke-opacity: 0.7"/>
     <use xlink:href="#m153ec859af" x="671.019886" y="450.688516" style="fill: #ff0000; fill-opacity: 0.7; stroke: #ff0000; stroke-opacity: 0.7"/>
    </g>
   </g>
   <g id="PathCollection_3">
    <defs>
     <path id="md806596397" d="M -5 5 
L 5 5 
L 5 -5 
L -5 -5 
z
" style="stroke: #000000"/>
    </defs>
    <g clip-path="url(#pc3d88e153d)">
     <use xlink:href="#md806596397" x="412.194737" y="449.771801" style="fill: #0000ff; stroke: #000000"/>
     <use xlink:href="#md806596397" x="464.299581" y="450.03274" style="fill: #0000ff; stroke: #000000"/>
     <use xlink:href="#md806596397" x="515.271711" y="449.245386" style="fill: #0000ff; stroke: #000000"/>
     <use xlink:href="#md806596397" x="566.810198" y="449.282224" style="fill: #0000ff; stroke: #000000"/>
     <use xlink:href="#md806596397" x="618.915042" y="449.164126" style="fill: #0000ff; stroke: #000000"/>
     <use xlink:href="#md806596397" x="671.019886" y="449.13172" style="fill: #0000ff; stroke: #000000"/>
    </g>
   </g>
   <g id="PathCollection_4">
    <defs>
     <path id="m3cf96ecaa8" d="M 0 -4.472136 
L -4.472136 4.472136 
L 4.472136 4.472136 
z
" style="stroke: #008000; stroke-opacity: 0.7"/>
    </defs>
    <g clip-path="url(#pc3d88e153d)">
     <use xlink:href="#m3cf96ecaa8" x="412.194737" y="441.839646" style="fill: #008000; fill-opacity: 0.7; stroke: #008000; stroke-opacity: 0.7"/>
     <use xlink:href="#m3cf96ecaa8" x="464.299581" y="443.711471" style="fill: #008000; fill-opacity: 0.7; stroke: #008000; stroke-opacity: 0.7"/>
     <use xlink:href="#m3cf96ecaa8" x="515.271711" y="435.446659" style="fill: #008000; fill-opacity: 0.7; stroke: #008000; stroke-opacity: 0.7"/>
     <use xlink:href="#m3cf96ecaa8" x="566.810198" y="433.642852" style="fill: #008000; fill-opacity: 0.7; stroke: #008000; stroke-opacity: 0.7"/>
     <use xlink:href="#m3cf96ecaa8" x="618.915042" y="431.368341" style="fill: #008000; fill-opacity: 0.7; stroke: #008000; stroke-opacity: 0.7"/>
     <use xlink:href="#m3cf96ecaa8" x="671.019886" y="431.398412" style="fill: #008000; fill-opacity: 0.7; stroke: #008000; stroke-opacity: 0.7"/>
    </g>
   </g>
   <g id="PathCollection_5">
    <defs>
     <path id="C0_0_8ecf75dcab" d="M 0 5.477226 
C 1.452577 5.477226 2.845856 4.900111 3.872983 3.872983 
C 4.900111 2.845856 5.477226 1.452577 5.477226 -0 
C 5.477226 -1.452577 4.900111 -2.845856 3.872983 -3.872983 
C 2.845856 -4.900111 1.452577 -5.477226 0 -5.477226 
C -1.452577 -5.477226 -2.845856 -4.900111 -3.872983 -3.872983 
C -4.900111 -2.845856 -5.477226 -1.452577 -5.477226 0 
C -5.477226 1.452577 -4.900111 2.845856 -3.872983 3.872983 
C -2.845856 4.900111 -1.452577 5.477226 0 5.477226 
z
"/>
    </defs>
    <g clip-path="url(#pc3d88e153d)">
     <use xlink:href="#C0_0_8ecf75dcab" x="412.194737" y="430.600738" style="fill: none; stroke: #000000; stroke-opacity: 0.95; stroke-width: 1.6"/>
    </g>
    <g clip-path="url(#pc3d88e153d)">
     <use xlink:href="#C0_0_8ecf75dcab" x="464.299581" y="429.435856" style="fill: none; stroke: #000000; stroke-opacity: 0.95; stroke-width: 1.6"/>
    </g>
    <g clip-path="url(#pc3d88e153d)">
     <use xlink:href="#C0_0_8ecf75dcab" x="515.271711" y="446.422119" style="fill: none; stroke: #000000; stroke-opacity: 0.95; stroke-width: 1.6"/>
    </g>
    <g clip-path="url(#pc3d88e153d)">
     <use xlink:href="#C0_0_8ecf75dcab" x="566.810198" y="444.15836" style="fill: none; stroke: #000000; stroke-opacity: 0.95; stroke-width: 1.6"/>
    </g>
    <g clip-path="url(#pc3d88e153d)">
     <use xlink:href="#C0_0_8ecf75dcab" x="618.915042" y="439.292299" style="fill: none; stroke: #000000; stroke-opacity: 0.95; stroke-width: 1.6"/>
    </g>
    <g clip-path="url(#pc3d88e153d)">
     <use xlink:href="#C0_0_8ecf75dcab" x="671.019886" y="437.647401" style="fill: none; stroke: #000000; stroke-opacity: 0.95; stroke-width: 1.6"/>
    </g>
   </g>
   <g id="matplotlib.axis_1">
    <g id="xtick_1">
     <g id="line2d_1">
      <path d="M 50.292614 471.089362 
L 50.292614 24.156562 
" clip-path="url(#pc3d88e153d)" style="fill: none; stroke-dasharray: 1.85,0.8; stroke-dashoffset: 0; stroke: #b0b0b0; stroke-opacity: 0.7; stroke-width: 0.5"/>
     </g>
     <g id="line2d_2">
      <defs>
       <path id="ma286483ae1" d="M 0 0 
L 0 3.5 
" style="stroke: #000000; stroke-width: 0.8"/>
      </defs>
      <g>
       <use xlink:href="#ma286483ae1" x="50.292614" y="471.089362" style="stroke: #000000; stroke-width: 0.8"/>
      </g>
     </g>
     <g id="text_1">
      <!-- 2022 -->
      <g transform="translate(28.660114 491.006706) scale(0.17 -0.17)">
       <defs>
        <path id="DejaVuSans-32" d="M 1228 531 
L 3431 531 
L 3431 0 
L 469 0 
L 469 531 
Q 828 903 1448 1529 
Q 2069 2156 2228 2338 
Q 2531 2678 2651 2914 
Q 2772 3150 2772 3378 
Q 2772 3750 2511 3984 
Q 2250 4219 1831 4219 
Q 1534 4219 1204 4116 
Q 875 4013 500 3803 
L 500 4441 
Q 881 4594 1212 4672 
Q 1544 4750 1819 4750 
Q 2544 4750 2975 4387 
Q 3406 4025 3406 3419 
Q 3406 3131 3298 2873 
Q 3191 2616 2906 2266 
Q 2828 2175 2409 1742 
Q 1991 1309 1228 531 
z
" transform="scale(0.015625)"/>
        <path id="DejaVuSans-30" d="M 2034 4250 
Q 1547 4250 1301 3770 
Q 1056 3291 1056 2328 
Q 1056 1369 1301 889 
Q 1547 409 2034 409 
Q 2525 409 2770 889 
Q 3016 1369 3016 2328 
Q 3016 3291 2770 3770 
Q 2525 4250 2034 4250 
z
M 2034 4750 
Q 2819 4750 3233 4129 
Q 3647 3509 3647 2328 
Q 3647 1150 3233 529 
Q 2819 -91 2034 -91 
Q 1250 -91 836 529 
Q 422 1150 422 2328 
Q 422 3509 836 4129 
Q 1250 4750 2034 4750 
z
" transform="scale(0.015625)"/>
       </defs>
       <use xlink:href="#DejaVuSans-32"/>
       <use xlink:href="#DejaVuSans-30" transform="translate(63.623047 0)"/>
       <use xlink:href="#DejaVuSans-32" transform="translate(127.246094 0)"/>
       <use xlink:href="#DejaVuSans-32" transform="translate(190.869141 0)"/>
      </g>
      <!-- Q4 -->
      <g transform="translate(38.193395 510.042987) scale(0.17 -0.17)">
       <defs>
        <path id="DejaVuSans-51" d="M 2522 4238 
Q 1834 4238 1429 3725 
Q 1025 3213 1025 2328 
Q 1025 1447 1429 934 
Q 1834 422 2522 422 
Q 3209 422 3611 934 
Q 4013 1447 4013 2328 
Q 4013 3213 3611 3725 
Q 3209 4238 2522 4238 
z
M 3406 84 
L 4238 -825 
L 3475 -825 
L 2784 -78 
Q 2681 -84 2626 -87 
Q 2572 -91 2522 -91 
Q 1538 -91 948 567 
Q 359 1225 359 2328 
Q 359 3434 948 4092 
Q 1538 4750 2522 4750 
Q 3503 4750 4090 4092 
Q 4678 3434 4678 2328 
Q 4678 1516 4351 937 
Q 4025 359 3406 84 
z
" transform="scale(0.015625)"/>
        <path id="DejaVuSans-34" d="M 2419 4116 
L 825 1625 
L 2419 1625 
L 2419 4116 
z
M 2253 4666 
L 3047 4666 
L 3047 1625 
L 3713 1625 
L 3713 1100 
L 3047 1100 
L 3047 0 
L 2419 0 
L 2419 1100 
L 313 1100 
L 313 1709 
L 2253 4666 
z
" transform="scale(0.015625)"/>
       </defs>
       <use xlink:href="#DejaVuSans-51"/>
       <use xlink:href="#DejaVuSans-34" transform="translate(78.710938 0)"/>
      </g>
     </g>
    </g>
    <g id="xtick_2">
     <g id="line2d_3">
      <path d="M 257.012919 471.089362 
L 257.012919 24.156562 
" clip-path="url(#pc3d88e153d)" style="fill: none; stroke-dasharray: 1.85,0.8; stroke-dashoffset: 0; stroke: #b0b0b0; stroke-opacity: 0.7; stroke-width: 0.5"/>
     </g>
     <g id="line2d_4">
      <g>
       <use xlink:href="#ma286483ae1" x="257.012919" y="471.089362" style="stroke: #000000; stroke-width: 0.8"/>
      </g>
     </g>
     <g id="text_2">
      <!-- 2023 -->
      <g transform="translate(235.380419 491.006706) scale(0.17 -0.17)">
       <defs>
        <path id="DejaVuSans-33" d="M 2597 2516 
Q 3050 2419 3304 2112 
Q 3559 1806 3559 1356 
Q 3559 666 3084 287 
Q 2609 -91 1734 -91 
Q 1441 -91 1130 -33 
Q 819 25 488 141 
L 488 750 
Q 750 597 1062 519 
Q 1375 441 1716 441 
Q 2309 441 2620 675 
Q 2931 909 2931 1356 
Q 2931 1769 2642 2001 
Q 2353 2234 1838 2234 
L 1294 2234 
L 1294 2753 
L 1863 2753 
Q 2328 2753 2575 2939 
Q 2822 3125 2822 3475 
Q 2822 3834 2567 4026 
Q 2313 4219 1838 4219 
Q 1578 4219 1281 4162 
Q 984 4106 628 3988 
L 628 4550 
Q 988 4650 1302 4700 
Q 1616 4750 1894 4750 
Q 2613 4750 3031 4423 
Q 3450 4097 3450 3541 
Q 3450 3153 3228 2886 
Q 3006 2619 2597 2516 
z
" transform="scale(0.015625)"/>
       </defs>
       <use xlink:href="#DejaVuSans-32"/>
       <use xlink:href="#DejaVuSans-30" transform="translate(63.623047 0)"/>
       <use xlink:href="#DejaVuSans-32" transform="translate(127.246094 0)"/>
       <use xlink:href="#DejaVuSans-33" transform="translate(190.869141 0)"/>
      </g>
      <!-- Q4 -->
      <g transform="translate(244.9137 510.042987) scale(0.17 -0.17)">
       <use xlink:href="#DejaVuSans-51"/>
       <use xlink:href="#DejaVuSans-34" transform="translate(78.710938 0)"/>
      </g>
     </g>
    </g>
    <g id="xtick_3">
     <g id="line2d_5">
      <path d="M 360.089893 471.089362 
L 360.089893 24.156562 
" clip-path="url(#pc3d88e153d)" style="fill: none; stroke-dasharray: 1.85,0.8; stroke-dashoffset: 0; stroke: #b0b0b0; stroke-opacity: 0.7; stroke-width: 0.5"/>
     </g>
     <g id="line2d_6">
      <g>
       <use xlink:href="#ma286483ae1" x="360.089893" y="471.089362" style="stroke: #000000; stroke-width: 0.8"/>
      </g>
     </g>
     <g id="text_3">
      <!-- 2024 -->
      <g transform="translate(338.457393 491.006706) scale(0.17 -0.17)">
       <use xlink:href="#DejaVuSans-32"/>
       <use xlink:href="#DejaVuSans-30" transform="translate(63.623047 0)"/>
       <use xlink:href="#DejaVuSans-32" transform="translate(127.246094 0)"/>
       <use xlink:href="#DejaVuSans-34" transform="translate(190.869141 0)"/>
      </g>
      <!-- Q2 -->
      <g transform="translate(347.990674 510.042987) scale(0.17 -0.17)">
       <use xlink:href="#DejaVuSans-51"/>
       <use xlink:href="#DejaVuSans-32" transform="translate(78.710938 0)"/>
      </g>
     </g>
    </g>
    <g id="xtick_4">
     <g id="line2d_7">
      <path d="M 412.194737 471.089362 
L 412.194737 24.156562 
" clip-path="url(#pc3d88e153d)" style="fill: none; stroke-dasharray: 1.85,0.8; stroke-dashoffset: 0; stroke: #b0b0b0; stroke-opacity: 0.7; stroke-width: 0.5"/>
     </g>
     <g id="line2d_8">
      <g>
       <use xlink:href="#ma286483ae1" x="412.194737" y="471.089362" style="stroke: #000000; stroke-width: 0.8"/>
      </g>
     </g>
     <g id="text_4">
      <!-- 2024 -->
      <g transform="translate(390.562237 491.006706) scale(0.17 -0.17)">
       <use xlink:href="#DejaVuSans-32"/>
       <use xlink:href="#DejaVuSans-30" transform="translate(63.623047 0)"/>
       <use xlink:href="#DejaVuSans-32" transform="translate(127.246094 0)"/>
       <use xlink:href="#DejaVuSans-34" transform="translate(190.869141 0)"/>
      </g>
      <!-- Q3 -->
      <g transform="translate(400.095518 510.042987) scale(0.17 -0.17)">
       <use xlink:href="#DejaVuSans-51"/>
       <use xlink:href="#DejaVuSans-33" transform="translate(78.710938 0)"/>
      </g>
     </g>
    </g>
    <g id="xtick_5">
     <g id="line2d_9">
      <path d="M 464.299581 471.089362 
L 464.299581 24.156562 
" clip-path="url(#pc3d88e153d)" style="fill: none; stroke-dasharray: 1.85,0.8; stroke-dashoffset: 0; stroke: #b0b0b0; stroke-opacity: 0.7; stroke-width: 0.5"/>
     </g>
     <g id="line2d_10">
      <g>
       <use xlink:href="#ma286483ae1" x="464.299581" y="471.089362" style="stroke: #000000; stroke-width: 0.8"/>
      </g>
     </g>
     <g id="text_5">
      <!-- 2024 -->
      <g transform="translate(442.667081 491.006706) scale(0.17 -0.17)">
       <use xlink:href="#DejaVuSans-32"/>
       <use xlink:href="#DejaVuSans-30" transform="translate(63.623047 0)"/>
       <use xlink:href="#DejaVuSans-32" transform="translate(127.246094 0)"/>
       <use xlink:href="#DejaVuSans-34" transform="translate(190.869141 0)"/>
      </g>
      <!-- Q4 -->
      <g transform="translate(452.200362 510.042987) scale(0.17 -0.17)">
       <use xlink:href="#DejaVuSans-51"/>
       <use xlink:href="#DejaVuSans-34" transform="translate(78.710938 0)"/>
      </g>
     </g>
    </g>
    <g id="xtick_6">
     <g id="line2d_11">
      <path d="M 515.271711 471.089362 
L 515.271711 24.156562 
" clip-path="url(#pc3d88e153d)" style="fill: none; stroke-dasharray: 1.85,0.8; stroke-dashoffset: 0; stroke: #b0b0b0; stroke-opacity: 0.7; stroke-width: 0.5"/>
     </g>
     <g id="line2d_12">
      <g>
       <use xlink:href="#ma286483ae1" x="515.271711" y="471.089362" style="stroke: #000000; stroke-width: 0.8"/>
      </g>
     </g>
     <g id="text_6">
      <!-- 2025 -->
      <g transform="translate(493.639211 491.006706) scale(0.17 -0.17)">
       <defs>
        <path id="DejaVuSans-35" d="M 691 4666 
L 3169 4666 
L 3169 4134 
L 1269 4134 
L 1269 2991 
Q 1406 3038 1543 3061 
Q 1681 3084 1819 3084 
Q 2600 3084 3056 2656 
Q 3513 2228 3513 1497 
Q 3513 744 3044 326 
Q 2575 -91 1722 -91 
Q 1428 -91 1123 -41 
Q 819 9 494 109 
L 494 744 
Q 775 591 1075 516 
Q 1375 441 1709 441 
Q 2250 441 2565 725 
Q 2881 1009 2881 1497 
Q 2881 1984 2565 2268 
Q 2250 2553 1709 2553 
Q 1456 2553 1204 2497 
Q 953 2441 691 2322 
L 691 4666 
z
" transform="scale(0.015625)"/>
       </defs>
       <use xlink:href="#DejaVuSans-32"/>
       <use xlink:href="#DejaVuSans-30" transform="translate(63.623047 0)"/>
       <use xlink:href="#DejaVuSans-32" transform="translate(127.246094 0)"/>
       <use xlink:href="#DejaVuSans-35" transform="translate(190.869141 0)"/>
      </g>
      <!-- Q1 -->
      <g transform="translate(503.172492 510.042987) scale(0.17 -0.17)">
       <defs>
        <path id="DejaVuSans-31" d="M 794 531 
L 1825 531 
L 1825 4091 
L 703 3866 
L 703 4441 
L 1819 4666 
L 2450 4666 
L 2450 531 
L 3481 531 
L 3481 0 
L 794 0 
L 794 531 
z
" transform="scale(0.015625)"/>
       </defs>
       <use xlink:href="#DejaVuSans-51"/>
       <use xlink:href="#DejaVuSans-31" transform="translate(78.710938 0)"/>
      </g>
     </g>
    </g>
    <g id="xtick_7">
     <g id="line2d_13">
      <path d="M 566.810198 471.089362 
L 566.810198 24.156562 
" clip-path="url(#pc3d88e153d)" style="fill: none; stroke-dasharray: 1.85,0.8; stroke-dashoffset: 0; stroke: #b0b0b0; stroke-opacity: 0.7; stroke-width: 0.5"/>
     </g>
     <g id="line2d_14">
      <g>
       <use xlink:href="#ma286483ae1" x="566.810198" y="471.089362" style="stroke: #000000; stroke-width: 0.8"/>
      </g>
     </g>
     <g id="text_7">
      <!-- 2025 -->
      <g transform="translate(545.177698 491.006706) scale(0.17 -0.17)">
       <use xlink:href="#DejaVuSans-32"/>
       <use xlink:href="#DejaVuSans-30" transform="translate(63.623047 0)"/>
       <use xlink:href="#DejaVuSans-32" transform="translate(127.246094 0)"/>
       <use xlink:href="#DejaVuSans-35" transform="translate(190.869141 0)"/>
      </g>
      <!-- Q2 -->
      <g transform="translate(554.710979 510.042987) scale(0.17 -0.17)">
       <use xlink:href="#DejaVuSans-51"/>
       <use xlink:href="#DejaVuSans-32" transform="translate(78.710938 0)"/>
      </g>
     </g>
    </g>
    <g id="xtick_8">
     <g id="line2d_15">
      <path d="M 618.915042 471.089362 
L 618.915042 24.156562 
" clip-path="url(#pc3d88e153d)" style="fill: none; stroke-dasharray: 1.85,0.8; stroke-dashoffset: 0; stroke: #b0b0b0; stroke-opacity: 0.7; stroke-width: 0.5"/>
     </g>
     <g id="line2d_16">
      <g>
       <use xlink:href="#ma286483ae1" x="618.915042" y="471.089362" style="stroke: #000000; stroke-width: 0.8"/>
      </g>
     </g>
     <g id="text_8">
      <!-- 2025 -->
      <g transform="translate(597.282542 491.006706) scale(0.17 -0.17)">
       <use xlink:href="#DejaVuSans-32"/>
       <use xlink:href="#DejaVuSans-30" transform="translate(63.623047 0)"/>
       <use xlink:href="#DejaVuSans-32" transform="translate(127.246094 0)"/>
       <use xlink:href="#DejaVuSans-35" transform="translate(190.869141 0)"/>
      </g>
      <!-- Q3 -->
      <g transform="translate(606.815824 510.042987) scale(0.17 -0.17)">
       <use xlink:href="#DejaVuSans-51"/>
       <use xlink:href="#DejaVuSans-33" transform="translate(78.710938 0)"/>
      </g>
     </g>
    </g>
    <g id="xtick_9">
     <g id="line2d_17">
      <path d="M 671.019886 471.089362 
L 671.019886 24.156562 
" clip-path="url(#pc3d88e153d)" style="fill: none; stroke-dasharray: 1.85,0.8; stroke-dashoffset: 0; stroke: #b0b0b0; stroke-opacity: 0.7; stroke-width: 0.5"/>
     </g>
     <g id="line2d_18">
      <g>
       <use xlink:href="#ma286483ae1" x="671.019886" y="471.089362" style="stroke: #000000; stroke-width: 0.8"/>
      </g>
     </g>
     <g id="text_9">
      <!-- 2025 -->
      <g transform="translate(649.387386 491.006706) scale(0.17 -0.17)">
       <use xlink:href="#DejaVuSans-32"/>
       <use xlink:href="#DejaVuSans-30" transform="translate(63.623047 0)"/>
       <use xlink:href="#DejaVuSans-32" transform="translate(127.246094 0)"/>
       <use xlink:href="#DejaVuSans-35" transform="translate(190.869141 0)"/>
      </g>
      <!-- Q4 -->
      <g transform="translate(658.920668 510.042987) scale(0.17 -0.17)">
       <use xlink:href="#DejaVuSans-51"/>
       <use xlink:href="#DejaVuSans-34" transform="translate(78.710938 0)"/>
      </g>
     </g>
    </g>
   </g>
   <g id="matplotlib.axis_2">
    <g id="ytick_1">
     <g id="line2d_19">
      <path d="M 19.25625 450.846858 
L 702.05625 450.846858 
" clip-path="url(#pc3d88e153d)" style="fill: none; stroke-dasharray: 1.85,0.8; stroke-dashoffset: 0; stroke: #b0b0b0; stroke-opacity: 0.7; stroke-width: 0.5"/>
     </g>
     <g id="line2d_20">
      <defs>
       <path id="m1a75be15cf" d="M 0 0 
L -3.5 0 
" style="stroke: #000000; stroke-width: 0.8"/>
      </defs>
      <g>
       <use xlink:href="#m1a75be15cf" x="19.25625" y="450.846858" style="stroke: #000000; stroke-width: 0.8"/>
      </g>
     </g>
     <g id="text_10">
      <!-- 0 -->
      <g transform="translate(1.44 457.30553) scale(0.17 -0.17)">
       <use xlink:href="#DejaVuSans-30"/>
      </g>
     </g>
    </g>
    <g id="ytick_2">
     <g id="line2d_21">
      <path d="M 19.25625 354.090704 
L 702.05625 354.090704 
" clip-path="url(#pc3d88e153d)" style="fill: none; stroke-dasharray: 1.85,0.8; stroke-dashoffset: 0; stroke: #b0b0b0; stroke-opacity: 0.7; stroke-width: 0.5"/>
     </g>
     <g id="line2d_22">
      <g>
       <use xlink:href="#m1a75be15cf" x="19.25625" y="354.090704" style="stroke: #000000; stroke-width: 0.8"/>
      </g>
     </g>
     <g id="text_11">
      <!-- 1 -->
      <g transform="translate(1.44 360.549376) scale(0.17 -0.17)">
       <use xlink:href="#DejaVuSans-31"/>
      </g>
     </g>
    </g>
    <g id="ytick_3">
     <g id="line2d_23">
      <path d="M 19.25625 257.33455 
L 702.05625 257.33455 
" clip-path="url(#pc3d88e153d)" style="fill: none; stroke-dasharray: 1.85,0.8; stroke-dashoffset: 0; stroke: #b0b0b0; stroke-opacity: 0.7; stroke-width: 0.5"/>
     </g>
     <g id="line2d_24">
      <g>
       <use xlink:href="#m1a75be15cf" x="19.25625" y="257.33455" style="stroke: #000000; stroke-width: 0.8"/>
      </g>
     </g>
     <g id="text_12">
      <!-- 2 -->
      <g transform="translate(1.44 263.793222) scale(0.17 -0.17)">
       <use xlink:href="#DejaVuSans-32"/>
      </g>
     </g>
    </g>
    <g id="ytick_4">
     <g id="line2d_25">
      <path d="M 19.25625 160.578397 
L 702.05625 160.578397 
" clip-path="url(#pc3d88e153d)" style="fill: none; stroke-dasharray: 1.85,0.8; stroke-dashoffset: 0; stroke: #b0b0b0; stroke-opacity: 0.7; stroke-width: 0.5"/>
     </g>
     <g id="line2d_26">
      <g>
       <use xlink:href="#m1a75be15cf" x="19.25625" y="160.578397" style="stroke: #000000; stroke-width: 0.8"/>
      </g>
     </g>
     <g id="text_13">
      <!-- 3 -->
      <g transform="translate(1.44 167.037069) scale(0.17 -0.17)">
       <use xlink:href="#DejaVuSans-33"/>
      </g>
     </g>
    </g>
    <g id="ytick_5">
     <g id="line2d_27">
      <path d="M 19.25625 63.822243 
L 702.05625 63.822243 
" clip-path="url(#pc3d88e153d)" style="fill: none; stroke-dasharray: 1.85,0.8; stroke-dashoffset: 0; stroke: #b0b0b0; stroke-opacity: 0.7; stroke-width: 0.5"/>
     </g>
     <g id="line2d_28">
      <g>
       <use xlink:href="#m1a75be15cf" x="19.25625" y="63.822243" style="stroke: #000000; stroke-width: 0.8"/>
      </g>
     </g>
     <g id="text_14">
      <!-- 4 -->
      <g transform="translate(1.44 70.280915) scale(0.17 -0.17)">
       <use xlink:href="#DejaVuSans-34"/>
      </g>
     </g>
    </g>
    <g id="text_15">
     <!-- 1e12 -->
     <g transform="translate(19.25625 21.156562) scale(0.1 -0.1)">
      <defs>
       <path id="DejaVuSans-65" d="M 3597 1894 
L 3597 1613 
L 953 1613 
Q 991 1019 1311 708 
Q 1631 397 2203 397 
Q 2534 397 2845 478 
Q 3156 559 3463 722 
L 3463 178 
Q 3153 47 2828 -22 
Q 2503 -91 2169 -91 
Q 1331 -91 842 396 
Q 353 884 353 1716 
Q 353 2575 817 3079 
Q 1281 3584 2069 3584 
Q 2775 3584 3186 3129 
Q 3597 2675 3597 1894 
z
M 3022 2063 
Q 3016 2534 2758 2815 
Q 2500 3097 2075 3097 
Q 1594 3097 1305 2825 
Q 1016 2553 972 2059 
L 3022 2063 
z
" transform="scale(0.015625)"/>
      </defs>
      <use xlink:href="#DejaVuSans-31"/>
      <use xlink:href="#DejaVuSans-65" transform="translate(63.623047 0)"/>
      <use xlink:href="#DejaVuSans-31" transform="translate(125.146484 0)"/>
      <use xlink:href="#DejaVuSans-32" transform="translate(188.769531 0)"/>
     </g>
    </g>
   </g>
   <g id="line2d_29">
    <path d="M 50.292614 124.448585 
L 257.012919 107.602951 
" clip-path="url(#pc3d88e153d)" style="fill: none; stroke: #808080; stroke-opacity: 0.5; stroke-linecap: square"/>
    <defs>
     <path id="m1debf82b82" d="M 0 5 
C 1.326016 5 2.597899 4.473168 3.535534 3.535534 
C 4.473168 2.597899 5 1.326016 5 0 
C 5 -1.326016 4.473168 -2.597899 3.535534 -3.535534 
C 2.597899 -4.473168 1.326016 -5 0 -5 
C -1.326016 -5 -2.597899 -4.473168 -3.535534 -3.535534 
C -4.473168 -2.597899 -5 -1.326016 -5 0 
C -5 1.326016 -4.473168 2.597899 -3.535534 3.535534 
C -2.597899 4.473168 -1.326016 5 0 5 
z
" style="stroke: #808080; stroke-opacity: 0.5"/>
    </defs>
    <g clip-path="url(#pc3d88e153d)">
     <use xlink:href="#m1debf82b82" x="50.292614" y="124.448585" style="fill: #808080; fill-opacity: 0.5; stroke: #808080; stroke-opacity: 0.5"/>
     <use xlink:href="#m1debf82b82" x="257.012919" y="107.602951" style="fill: #808080; fill-opacity: 0.5; stroke: #808080; stroke-opacity: 0.5"/>
    </g>
   </g>
   <g id="patch_3">
    <path d="M 19.25625 471.089362 
L 19.25625 24.156562 
" style="fill: none; stroke: #000000; stroke-width: 0.8; stroke-linejoin: miter; stroke-linecap: square"/>
   </g>
   <g id="patch_4">
    <path d="M 702.05625 471.089362 
L 702.05625 24.156562 
" style="fill: none; stroke: #000000; stroke-width: 0.8; stroke-linejoin: miter; stroke-linecap: square"/>
   </g>
   <g id="patch_5">
    <path d="M 19.25625 471.089362 
L 702.05625 471.089362 
" style="fill: none; stroke: #000000; stroke-width: 0.8; stroke-linejoin: miter; stroke-linecap: square"/>
   </g>
   <g id="patch_6">
    <path d="M 19.25625 24.156562 
L 702.05625 24.156562 
" style="fill: none; stroke: #000000; stroke-width: 0.8; stroke-linejoin: miter; stroke-linecap: square"/>
   </g>
   <g id="text_16">
    <!-- ★ theory outlier clipped -->
    <g transform="translate(32.91225 38.414125) scale(0.07 -0.07)">
     <defs>
      <path id="DejaVuSans-2605" d="M 416 2850 
L 2288 2850 
L 2869 4628 
L 3453 2850 
L 5322 2850 
L 3809 1747 
L 4391 -28 
L 2869 1072 
L 1350 -28 
L 1928 1747 
L 416 2850 
z
" transform="scale(0.015625)"/>
      <path id="DejaVuSans-20" transform="scale(0.015625)"/>
      <path id="DejaVuSans-74" d="M 1172 4494 
L 1172 3500 
L 2356 3500 
L 2356 3053 
L 1172 3053 
L 1172 1153 
Q 1172 725 1289 603 
Q 1406 481 1766 481 
L 2356 481 
L 2356 0 
L 1766 0 
Q 1100 0 847 248 
Q 594 497 594 1153 
L 594 3053 
L 172 3053 
L 172 3500 
L 594 3500 
L 594 4494 
L 1172 4494 
z
" transform="scale(0.015625)"/>
      <path id="DejaVuSans-68" d="M 3513 2113 
L 3513 0 
L 2938 0 
L 2938 2094 
Q 2938 2591 2744 2837 
Q 2550 3084 2163 3084 
Q 1697 3084 1428 2787 
Q 1159 2491 1159 1978 
L 1159 0 
L 581 0 
L 581 4863 
L 1159 4863 
L 1159 2956 
Q 1366 3272 1645 3428 
Q 1925 3584 2291 3584 
Q 2894 3584 3203 3211 
Q 3513 2838 3513 2113 
z
" transform="scale(0.015625)"/>
      <path id="DejaVuSans-6f" d="M 1959 3097 
Q 1497 3097 1228 2736 
Q 959 2375 959 1747 
Q 959 1119 1226 758 
Q 1494 397 1959 397 
Q 2419 397 2687 759 
Q 2956 1122 2956 1747 
Q 2956 2369 2687 2733 
Q 2419 3097 1959 3097 
z
M 1959 3584 
Q 2709 3584 3137 3096 
Q 3566 2609 3566 1747 
Q 3566 888 3137 398 
Q 2709 -91 1959 -91 
Q 1206 -91 779 398 
Q 353 888 353 1747 
Q 353 2609 779 3096 
Q 1206 3584 1959 3584 
z
" transform="scale(0.015625)"/>
      <path id="DejaVuSans-72" d="M 2631 2963 
Q 2534 3019 2420 3045 
Q 2306 3072 2169 3072 
Q 1681 3072 1420 2755 
Q 1159 2438 1159 1844 
L 1159 0 
L 581 0 
L 581 3500 
L 1159 3500 
L 1159 2956 
Q 1341 3275 1631 3429 
Q 1922 3584 2338 3584 
Q 2397 3584 2469 3576 
Q 2541 3569 2628 3553 
L 2631 2963 
z
" transform="scale(0.015625)"/>
      <path id="DejaVuSans-79" d="M 2059 -325 
Q 1816 -950 1584 -1140 
Q 1353 -1331 966 -1331 
L 506 -1331 
L 506 -850 
L 844 -850 
Q 1081 -850 1212 -737 
Q 1344 -625 1503 -206 
L 1606 56 
L 191 3500 
L 800 3500 
L 1894 763 
L 2988 3500 
L 3597 3500 
L 2059 -325 
z
" transform="scale(0.015625)"/>
      <path id="DejaVuSans-75" d="M 544 1381 
L 544 3500 
L 1119 3500 
L 1119 1403 
Q 1119 906 1312 657 
Q 1506 409 1894 409 
Q 2359 409 2629 706 
Q 2900 1003 2900 1516 
L 2900 3500 
L 3475 3500 
L 3475 0 
L 2900 0 
L 2900 538 
Q 2691 219 2414 64 
Q 2138 -91 1772 -91 
Q 1169 -91 856 284 
Q 544 659 544 1381 
z
M 1991 3584 
L 1991 3584 
z
" transform="scale(0.015625)"/>
      <path id="DejaVuSans-6c" d="M 603 4863 
L 1178 4863 
L 1178 0 
L 603 0 
L 603 4863 
z
" transform="scale(0.015625)"/>
      <path id="DejaVuSans-69" d="M 603 3500 
L 1178 3500 
L 1178 0 
L 603 0 
L 603 3500 
z
M 603 4863 
L 1178 4863 
L 1178 4134 
L 603 4134 
L 603 4863 
z
" transform="scale(0.015625)"/>
      <path id="DejaVuSans-63" d="M 3122 3366 
L 3122 2828 
Q 2878 2963 2633 3030 
Q 2388 3097 2138 3097 
Q 1578 3097 1268 2742 
Q 959 2388 959 1747 
Q 959 1106 1268 751 
Q 1578 397 2138 397 
Q 2388 397 2633 464 
Q 2878 531 3122 666 
L 3122 134 
Q 2881 22 2623 -34 
Q 2366 -91 2075 -91 
Q 1284 -91 818 406 
Q 353 903 353 1747 
Q 353 2603 823 3093 
Q 1294 3584 2113 3584 
Q 2378 3584 2631 3529 
Q 2884 3475 3122 3366 
z
" transform="scale(0.015625)"/>
      <path id="DejaVuSans-70" d="M 1159 525 
L 1159 -1331 
L 581 -1331 
L 581 3500 
L 1159 3500 
L 1159 2969 
Q 1341 3281 1617 3432 
Q 1894 3584 2278 3584 
Q 2916 3584 3314 3078 
Q 3713 2572 3713 1747 
Q 3713 922 3314 415 
Q 2916 -91 2278 -91 
Q 1894 -91 1617 61 
Q 1341 213 1159 525 
z
M 3116 1747 
Q 3116 2381 2855 2742 
Q 2594 3103 2138 3103 
Q 1681 3103 1420 2742 
Q 1159 2381 1159 1747 
Q 1159 1113 1420 752 
Q 1681 391 2138 391 
Q 2594 391 2855 752 
Q 3116 1113 3116 1747 
z
" transform="scale(0.015625)"/>
      <path id="DejaVuSans-64" d="M 2906 2969 
L 2906 4863 
L 3481 4863 
L 3481 0 
L 2906 0 
L 2906 525 
Q 2725 213 2448 61 
Q 2172 -91 1784 -91 
Q 1150 -91 751 415 
Q 353 922 353 1747 
Q 353 2572 751 3078 
Q 1150 3584 1784 3584 
Q 2172 3584 2448 3432 
Q 2725 3281 2906 2969 
z
M 947 1747 
Q 947 1113 1208 752 
Q 1469 391 1925 391 
Q 2381 391 2643 752 
Q 2906 1113 2906 1747 
Q 2906 2381 2643 2742 
Q 2381 3103 1925 3103 
Q 1469 3103 1208 2742 
Q 947 2381 947 1747 
z
" transform="scale(0.015625)"/>
     </defs>
     <use xlink:href="#DejaVuSans-2605"/>
     <use xlink:href="#DejaVuSans-20" transform="translate(89.648438 0)"/>
     <use xlink:href="#DejaVuSans-74" transform="translate(121.435547 0)"/>
     <use xlink:href="#DejaVuSans-68" transform="translate(160.644531 0)"/>
     <use xlink:href="#DejaVuSans-65" transform="translate(224.023438 0)"/>
     <use xlink:href="#DejaVuSans-6f" transform="translate(285.546875 0)"/>
     <use xlink:href="#DejaVuSans-72" transform="translate(346.728516 0)"/>
     <use xlink:href="#DejaVuSans-79" transform="translate(387.841797 0)"/>
     <use xlink:href="#DejaVuSans-20" transform="translate(447.021484 0)"/>
     <use xlink:href="#DejaVuSans-6f" transform="translate(478.808594 0)"/>
     <use xlink:href="#DejaVuSans-75" transform="translate(539.990234 0)"/>
     <use xlink:href="#DejaVuSans-74" transform="translate(603.369141 0)"/>
     <use xlink:href="#DejaVuSans-6c" transform="translate(642.578125 0)"/>
     <use xlink:href="#DejaVuSans-69" transform="translate(670.361328 0)"/>
     <use xlink:href="#DejaVuSans-65" transform="translate(698.144531 0)"/>
     <use xlink:href="#DejaVuSans-72" transform="translate(759.667969 0)"/>
     <use xlink:href="#DejaVuSans-20" transform="translate(800.78125 0)"/>
     <use xlink:href="#DejaVuSans-63" transform="translate(832.568359 0)"/>
     <use xlink:href="#DejaVuSans-6c" transform="translate(887.548828 0)"/>
     <use xlink:href="#DejaVuSans-69" transform="translate(915.332031 0)"/>
     <use xlink:href="#DejaVuSans-70" transform="translate(943.115234 0)"/>
     <use xlink:href="#DejaVuSans-70" transform="translate(1006.591797 0)"/>
     <use xlink:href="#DejaVuSans-65" transform="translate(1070.068359 0)"/>
     <use xlink:href="#DejaVuSans-64" transform="translate(1131.591797 0)"/>
    </g>
   </g>
   <g id="text_17">
    <!-- flow_TL -->
    <g transform="translate(314.366875 18.156562) scale(0.22 -0.22)">
     <defs>
      <path id="DejaVuSans-Bold-66" d="M 2841 4863 
L 2841 4128 
L 2222 4128 
Q 1984 4128 1890 4042 
Q 1797 3956 1797 3744 
L 1797 3500 
L 2753 3500 
L 2753 2700 
L 1797 2700 
L 1797 0 
L 678 0 
L 678 2700 
L 122 2700 
L 122 3500 
L 678 3500 
L 678 3744 
Q 678 4316 997 4589 
Q 1316 4863 1984 4863 
L 2841 4863 
z
" transform="scale(0.015625)"/>
      <path id="DejaVuSans-Bold-6c" d="M 538 4863 
L 1656 4863 
L 1656 0 
L 538 0 
L 538 4863 
z
" transform="scale(0.015625)"/>
      <path id="DejaVuSans-Bold-6f" d="M 2203 2784 
Q 1831 2784 1636 2517 
Q 1441 2250 1441 1747 
Q 1441 1244 1636 976 
Q 1831 709 2203 709 
Q 2569 709 2762 976 
Q 2956 1244 2956 1747 
Q 2956 2250 2762 2517 
Q 2569 2784 2203 2784 
z
M 2203 3584 
Q 3106 3584 3614 3096 
Q 4122 2609 4122 1747 
Q 4122 884 3614 396 
Q 3106 -91 2203 -91 
Q 1297 -91 786 396 
Q 275 884 275 1747 
Q 275 2609 786 3096 
Q 1297 3584 2203 3584 
z
" transform="scale(0.015625)"/>
      <path id="DejaVuSans-Bold-77" d="M 225 3500 
L 1313 3500 
L 1900 1088 
L 2491 3500 
L 3425 3500 
L 4013 1113 
L 4603 3500 
L 5691 3500 
L 4769 0 
L 3547 0 
L 2956 2406 
L 2369 0 
L 1147 0 
L 225 3500 
z
" transform="scale(0.015625)"/>
      <path id="DejaVuSans-Bold-5f" d="M 3200 -916 
L 3200 -1509 
L 0 -1509 
L 0 -916 
L 3200 -916 
z
" transform="scale(0.015625)"/>
      <path id="DejaVuSans-Bold-54" d="M 31 4666 
L 4331 4666 
L 4331 3756 
L 2784 3756 
L 2784 0 
L 1581 0 
L 1581 3756 
L 31 3756 
L 31 4666 
z
" transform="scale(0.015625)"/>
      <path id="DejaVuSans-Bold-4c" d="M 588 4666 
L 1791 4666 
L 1791 909 
L 3903 909 
L 3903 0 
L 588 0 
L 588 4666 
z
" transform="scale(0.015625)"/>
     </defs>
     <use xlink:href="#DejaVuSans-Bold-66"/>
     <use xlink:href="#DejaVuSans-Bold-6c" transform="translate(43.505859 0)"/>
     <use xlink:href="#DejaVuSans-Bold-6f" transform="translate(77.783203 0)"/>
     <use xlink:href="#DejaVuSans-Bold-77" transform="translate(146.484375 0)"/>
     <use xlink:href="#DejaVuSans-Bold-5f" transform="translate(238.867188 0)"/>
     <use xlink:href="#DejaVuSans-Bold-54" transform="translate(288.867188 0)"/>
     <use xlink:href="#DejaVuSans-Bold-4c" transform="translate(357.080078 0)"/>
    </g>
   </g>
   <g id="PathCollection_6">
    <defs>
     <path id="m3b651775c1" d="M -5.477226 5.477226 
L 5.477226 -5.477226 
M -5.477226 -5.477226 
L 5.477226 5.477226 
" style="stroke: #000000; stroke-width: 2"/>
    </defs>
    <g clip-path="url(#pc3d88e153d)">
     <use xlink:href="#m3b651775c1" x="464.299581" y="96.907429" style="stroke: #000000; stroke-width: 2"/>
     <use xlink:href="#m3b651775c1" x="515.271711" y="63.199521" style="stroke: #000000; stroke-width: 2"/>
     <use xlink:href="#m3b651775c1" x="566.810198" y="44.900803" style="stroke: #000000; stroke-width: 2"/>
     <use xlink:href="#m3b651775c1" x="618.915042" y="44.47169" style="stroke: #000000; stroke-width: 2"/>
     <use xlink:href="#m3b651775c1" x="671.019886" y="57.77866" style="stroke: #000000; stroke-width: 2"/>
    </g>
   </g>
   <g id="PathCollection_7">
    <defs>
     <path id="m443671350e" d="M 0 -4.743416 
L -1.064963 -1.465796 
L -4.511257 -1.465796 
L -1.723147 0.559884 
L -2.78811 3.837505 
L -0 1.811824 
L 2.78811 3.837505 
L 1.723147 0.559884 
L 4.511257 -1.465796 
L 1.064963 -1.465796 
z
" style="stroke: #000000"/>
    </defs>
    <g clip-path="url(#pc3d88e153d)">
     <use xlink:href="#m443671350e" x="515.271711" y="24.156562" style="fill: #ffa500; stroke: #000000"/>
    </g>
   </g>
  </g>
 </g>
 <defs>
  <clipPath id="pc3d88e153d">
   <rect x="19.25625" y="24.156562" width="682.8" height="446.9328"/>
  </clipPath>
 </defs>
</svg>
