<?xml version="1.0" encoding="utf-8" standalone="no"?>
<!DOCTYPE svg PUBLIC "-//W3C//DTD SVG 1.1//EN"
  "http://www.w3.org/Graphics/SVG/1.1/DTD/svg11.dtd">
<svg xmlns:xlink="http://www.w3.org/1999/xlink" width="703.605313pt" height="515.018456pt" viewBox="0 0 703.605313 515.018456" xmlns="http://www.w3.org/2000/svg" version="1.1">
 <metadata>
  <rdf:RDF xmlns:dc="http://purl.org/dc/elements/1.1/" xmlns:cc="http://creativecommons.org/ns#" xmlns:rdf="http://www.w3.org/1999/02/22-rdf-syntax-ns#">
   <cc:Work>
    <dc:type rdf:resource="http://purl.org/dc/dcmitype/StillImage"/>
    <dc:date>2026-03-02T15:23:49.104522</dc:date>
    <dc:format>image/svg+xml</dc:format>
    <dc:creator>
     <cc:Agent>
      <dc:title>Matplotlib v3.10.6, https://matplotlib.org/</dc:title>
     </cc:Agent>
    </dc:creator>
   </cc:Work>
  </rdf:RDF>
 </metadata>
 <defs>
  <style type="text/css">*{stroke-linejoin: round; stroke-linecap: butt}</style>
 </defs>
 <g id="figure_1">
  <g id="patch_1">
   <path d="M 0 515.018456 
L 703.605313 515.018456 
L 703.605313 0 
L 0 0 
z
" style="fill: #ffffff"/>
  </g>
  <g id="axes_1">
   <g id="patch_2">
    <path d="M 35.475313 471.089362 
L 702.165312 471.089362 
L 702.165312 24.156562 
L 35.475313 24.156562 
z
" style="fill: #ffffff"/>
   </g>
   <g id="PathCollection_1">
    <defs>
     <path id="m716c3fb216" d="M 0 6.708204 
L 6.708204 0 
L 0 -6.708204 
L -6.708204 0 
z
" style="stroke: #000000; stroke-opacity: 0.85"/>
    </defs>
    <g clip-path="url(#p217056051d)">
     <use xlink:href="#m716c3fb216" x="419.142799" y="205.869555" style="fill: #ffa500; fill-opacity: 0.85; stroke: #000000; stroke-opacity: 0.85"/>
     <use xlink:href="#m716c3fb216" x="470.01828" y="205.869555" style="fill: #ffa500; fill-opacity: 0.85; stroke: #000000; stroke-opacity: 0.85"/>
     <use xlink:href="#m716c3fb216" x="519.787773" y="205.869555" style="fill: #ffa500; fill-opacity: 0.85; stroke: #000000; stroke-opacity: 0.85"/>
     <use xlink:href="#m716c3fb216" x="570.110259" y="205.869555" style="fill: #ffa500; fill-opacity: 0.85; stroke: #000000; stroke-opacity: 0.85"/>
     <use xlink:href="#m716c3fb216" x="620.985741" y="205.869555" style="fill: #ffa500; fill-opacity: 0.85; stroke: #000000; stroke-opacity: 0.85"/>
     <use xlink:href="#m716c3fb216" x="671.861222" y="205.869555" style="fill: #ffa500; fill-opacity: 0.85; stroke: #000000; stroke-opacity: 0.85"/>
    </g>
   </g>
   <g id="PathCollection_2">
    <defs>
     <path id="m7fd3d56374" d="M -0 4.472136 
L 4.472136 -4.472136 
L -4.472136 -4.472136 
z
" style="stroke: #ff0000; stroke-opacity: 0.7"/>
    </defs>
    <g clip-path="url(#p217056051d)">
     <use xlink:href="#m7fd3d56374" x="419.142799" y="447.618798" style="fill: #ff0000; fill-opacity: 0.7; stroke: #ff0000; stroke-opacity: 0.7"/>
     <use xlink:href="#m7fd3d56374" x="470.01828" y="450.774235" style="fill: #ff0000; fill-opacity: 0.7; stroke: #ff0000; stroke-opacity: 0.7"/>
     <use xlink:href="#m7fd3d56374" x="519.787773" y="445.076872" style="fill: #ff0000; fill-opacity: 0.7; stroke: #ff0000; stroke-opacity: 0.7"/>
     <use xlink:href="#m7fd3d56374" x="570.110259" y="444.44939" style="fill: #ff0000; fill-opacity: 0.7; stroke: #ff0000; stroke-opacity: 0.7"/>
     <use xlink:href="#m7fd3d56374" x="620.985741" y="444.997251" style="fill: #ff0000; fill-opacity: 0.7; stroke: #ff0000; stroke-opacity: 0.7"/>
     <use xlink:href="#m7fd3d56374" x="671.861222" y="444.144929" style="fill: #ff0000; fill-opacity: 0.7; stroke: #ff0000; stroke-opacity: 0.7"/>
    </g>
   </g>
   <g id="PathCollection_3">
    <defs>
     <path id="m08e90b3e9e" d="M -5 5 
L 5 5 
L 5 -5 
L -5 -5 
z
" style="stroke: #000000"/>
    </defs>
    <g clip-path="url(#p217056051d)">
     <use xlink:href="#m08e90b3e9e" x="419.142799" y="221.015407" style="fill: #0000ff; stroke: #000000"/>
     <use xlink:href="#m08e90b3e9e" x="470.01828" y="224.060703" style="fill: #0000ff; stroke: #000000"/>
     <use xlink:href="#m08e90b3e9e" x="519.787773" y="218.195791" style="fill: #0000ff; stroke: #000000"/>
     <use xlink:href="#m08e90b3e9e" x="570.110259" y="217.551981" style="fill: #0000ff; stroke: #000000"/>
     <use xlink:href="#m08e90b3e9e" x="620.985741" y="217.333397" style="fill: #0000ff; stroke: #000000"/>
     <use xlink:href="#m08e90b3e9e" x="671.861222" y="217.710267" style="fill: #0000ff; stroke: #000000"/>
    </g>
   </g>
   <g id="PathCollection_4">
    <defs>
     <path id="mce72ac9cea" d="M 0 -4.472136 
L -4.472136 4.472136 
L 4.472136 4.472136 
z
" style="stroke: #008000; stroke-opacity: 0.7"/>
    </defs>
    <g clip-path="url(#p217056051d)">
     <use xlink:href="#mce72ac9cea" x="419.142799" y="51.02146" style="fill: #008000; fill-opacity: 0.7; stroke: #008000; stroke-opacity: 0.7"/>
     <use xlink:href="#mce72ac9cea" x="470.01828" y="53.170199" style="fill: #008000; fill-opacity: 0.7; stroke: #008000; stroke-opacity: 0.7"/>
     <use xlink:href="#mce72ac9cea" x="519.787773" y="45.697525" style="fill: #008000; fill-opacity: 0.7; stroke: #008000; stroke-opacity: 0.7"/>
     <use xlink:href="#mce72ac9cea" x="570.110259" y="45.071435" style="fill: #008000; fill-opacity: 0.7; stroke: #008000; stroke-opacity: 0.7"/>
     <use xlink:href="#mce72ac9cea" x="620.985741" y="44.47169" style="fill: #008000; fill-opacity: 0.7; stroke: #008000; stroke-opacity: 0.7"/>
     <use xlink:href="#mce72ac9cea" x="671.861222" y="44.838021" style="fill: #008000; fill-opacity: 0.7; stroke: #008000; stroke-opacity: 0.7"/>
    </g>
   </g>
   <g id="PathCollection_5">
    <defs>
     <path id="C0_0_dbc73366e5" d="M 0 5.477226 
C 1.452577 5.477226 2.845856 4.900111 3.872983 3.872983 
C 4.900111 2.845856 5.477226 1.452577 5.477226 -0 
C 5.477226 -1.452577 4.900111 -2.845856 3.872983 -3.872983 
C 2.845856 -4.900111 1.452577 -5.477226 0 -5.477226 
C -1.452577 -5.477226 -2.845856 -4.900111 -3.872983 -3.872983 
C -4.900111 -2.845856 -5.477226 -1.452577 -5.477226 0 
C -5.477226 1.452577 -4.900111 2.845856 -3.872983 3.872983 
C -2.845856 4.900111 -1.452577 5.477226 0 5.477226 
z
"/>
    </defs>
    <g clip-path="url(#p217056051d)">
     <use xlink:href="#C0_0_dbc73366e5" x="419.142799" y="206.530044" style="fill: none; stroke: #000000; stroke-opacity: 0.95; stroke-width: 1.6"/>
    </g>
    <g clip-path="url(#p217056051d)">
     <use xlink:href="#C0_0_dbc73366e5" x="470.01828" y="206.530044" style="fill: none; stroke: #000000; stroke-opacity: 0.95; stroke-width: 1.6"/>
    </g>
    <g clip-path="url(#p217056051d)">
     <use xlink:href="#C0_0_dbc73366e5" x="519.787773" y="201.235955" style="fill: none; stroke: #000000; stroke-opacity: 0.95; stroke-width: 1.6"/>
    </g>
    <g clip-path="url(#p217056051d)">
     <use xlink:href="#C0_0_dbc73366e5" x="570.110259" y="200.080324" style="fill: none; stroke: #000000; stroke-opacity: 0.95; stroke-width: 1.6"/>
    </g>
    <g clip-path="url(#p217056051d)">
     <use xlink:href="#C0_0_dbc73366e5" x="620.985741" y="185.036443" style="fill: none; stroke: #000000; stroke-opacity: 0.95; stroke-width: 1.6"/>
    </g>
    <g clip-path="url(#p217056051d)">
     <use xlink:href="#C0_0_dbc73366e5" x="671.861222" y="185.85558" style="fill: none; stroke: #000000; stroke-opacity: 0.95; stroke-width: 1.6"/>
    </g>
   </g>
   <g id="matplotlib.axis_1">
    <g id="xtick_1">
     <g id="line2d_1">
      <path d="M 65.779403 471.089362 
L 65.779403 24.156562 
" clip-path="url(#p217056051d)" style="fill: none; stroke-dasharray: 1.85,0.8; stroke-dashoffset: 0; stroke: #b0b0b0; stroke-opacity: 0.7; stroke-width: 0.5"/>
     </g>
     <g id="line2d_2">
      <defs>
       <path id="m910620de7e" d="M 0 0 
L 0 3.5 
" style="stroke: #000000; stroke-width: 0.8"/>
      </defs>
      <g>
       <use xlink:href="#m910620de7e" x="65.779403" y="471.089362" style="stroke: #000000; stroke-width: 0.8"/>
      </g>
     </g>
     <g id="text_1">
      <!-- 2022 -->
      <g transform="translate(44.146903 491.006706) scale(0.17 -0.17)">
       <defs>
        <path id="DejaVuSans-32" d="M 1228 531 
L 3431 531 
L 3431 0 
L 469 0 
L 469 531 
Q 828 903 1448 1529 
Q 2069 2156 2228 2338 
Q 2531 2678 2651 2914 
Q 2772 3150 2772 3378 
Q 2772 3750 2511 3984 
Q 2250 4219 1831 4219 
Q 1534 4219 1204 4116 
Q 875 4013 500 3803 
L 500 4441 
Q 881 4594 1212 4672 
Q 1544 4750 1819 4750 
Q 2544 4750 2975 4387 
Q 3406 4025 3406 3419 
Q 3406 3131 3298 2873 
Q 3191 2616 2906 2266 
Q 2828 2175 2409 1742 
Q 1991 1309 1228 531 
z
" transform="scale(0.015625)"/>
        <path id="DejaVuSans-30" d="M 2034 4250 
Q 1547 4250 1301 3770 
Q 1056 3291 1056 2328 
Q 1056 1369 1301 889 
Q 1547 409 2034 409 
Q 2525 409 2770 889 
Q 3016 1369 3016 2328 
Q 3016 3291 2770 3770 
Q 2525 4250 2034 4250 
z
M 2034 4750 
Q 2819 4750 3233 4129 
Q 3647 3509 3647 2328 
Q 3647 1150 3233 529 
Q 2819 -91 2034 -91 
Q 1250 -91 836 529 
Q 422 1150 422 2328 
Q 422 3509 836 4129 
Q 1250 4750 2034 4750 
z
" transform="scale(0.015625)"/>
       </defs>
       <use xlink:href="#DejaVuSans-32"/>
       <use xlink:href="#DejaVuSans-30" transform="translate(63.623047 0)"/>
       <use xlink:href="#DejaVuSans-32" transform="translate(127.246094 0)"/>
       <use xlink:href="#DejaVuSans-32" transform="translate(190.869141 0)"/>
      </g>
      <!-- Q4 -->
      <g transform="translate(53.680185 510.042987) scale(0.17 -0.17)">
       <defs>
        <path id="DejaVuSans-51" d="M 2522 4238 
Q 1834 4238 1429 3725 
Q 1025 3213 1025 2328 
Q 1025 1447 1429 934 
Q 1834 422 2522 422 
Q 3209 422 3611 934 
Q 4013 1447 4013 2328 
Q 4013 3213 3611 3725 
Q 3209 4238 2522 4238 
z
M 3406 84 
L 4238 -825 
L 3475 -825 
L 2784 -78 
Q 2681 -84 2626 -87 
Q 2572 -91 2522 -91 
Q 1538 -91 948 567 
Q 359 1225 359 2328 
Q 359 3434 948 4092 
Q 1538 4750 2522 4750 
Q 3503 4750 4090 4092 
Q 4678 3434 4678 2328 
Q 4678 1516 4351 937 
Q 4025 359 3406 84 
z
" transform="scale(0.015625)"/>
        <path id="DejaVuSans-34" d="M 2419 4116 
L 825 1625 
L 2419 1625 
L 2419 4116 
z
M 2253 4666 
L 3047 4666 
L 3047 1625 
L 3713 1625 
L 3713 1100 
L 3047 1100 
L 3047 0 
L 2419 0 
L 2419 1100 
L 313 1100 
L 313 1709 
L 2253 4666 
z
" transform="scale(0.015625)"/>
       </defs>
       <use xlink:href="#DejaVuSans-51"/>
       <use xlink:href="#DejaVuSans-34" transform="translate(78.710938 0)"/>
      </g>
     </g>
    </g>
    <g id="xtick_2">
     <g id="line2d_3">
      <path d="M 267.622345 471.089362 
L 267.622345 24.156562 
" clip-path="url(#p217056051d)" style="fill: none; stroke-dasharray: 1.85,0.8; stroke-dashoffset: 0; stroke: #b0b0b0; stroke-opacity: 0.7; stroke-width: 0.5"/>
     </g>
     <g id="line2d_4">
      <g>
       <use xlink:href="#m910620de7e" x="267.622345" y="471.089362" style="stroke: #000000; stroke-width: 0.8"/>
      </g>
     </g>
     <g id="text_2">
      <!-- 2023 -->
      <g transform="translate(245.989845 491.006706) scale(0.17 -0.17)">
       <defs>
        <path id="DejaVuSans-33" d="M 2597 2516 
Q 3050 2419 3304 2112 
Q 3559 1806 3559 1356 
Q 3559 666 3084 287 
Q 2609 -91 1734 -91 
Q 1441 -91 1130 -33 
Q 819 25 488 141 
L 488 750 
Q 750 597 1062 519 
Q 1375 441 1716 441 
Q 2309 441 2620 675 
Q 2931 909 2931 1356 
Q 2931 1769 2642 2001 
Q 2353 2234 1838 2234 
L 1294 2234 
L 1294 2753 
L 1863 2753 
Q 2328 2753 2575 2939 
Q 2822 3125 2822 3475 
Q 2822 3834 2567 4026 
Q 2313 4219 1838 4219 
Q 1578 4219 1281 4162 
Q 984 4106 628 3988 
L 628 4550 
Q 988 4650 1302 4700 
Q 1616 4750 1894 4750 
Q 2613 4750 3031 4423 
Q 3450 4097 3450 3541 
Q 3450 3153 3228 2886 
Q 3006 2619 2597 2516 
z
" transform="scale(0.015625)"/>
       </defs>
       <use xlink:href="#DejaVuSans-32"/>
       <use xlink:href="#DejaVuSans-30" transform="translate(63.623047 0)"/>
       <use xlink:href="#DejaVuSans-32" transform="translate(127.246094 0)"/>
       <use xlink:href="#DejaVuSans-33" transform="translate(190.869141 0)"/>
      </g>
      <!-- Q4 -->
      <g transform="translate(255.523126 510.042987) scale(0.17 -0.17)">
       <use xlink:href="#DejaVuSans-51"/>
       <use xlink:href="#DejaVuSans-34" transform="translate(78.710938 0)"/>
      </g>
     </g>
    </g>
    <g id="xtick_3">
     <g id="line2d_5">
      <path d="M 368.267318 471.089362 
L 368.267318 24.156562 
" clip-path="url(#p217056051d)" style="fill: none; stroke-dasharray: 1.85,0.8; stroke-dashoffset: 0; stroke: #b0b0b0; stroke-opacity: 0.7; stroke-width: 0.5"/>
     </g>
     <g id="line2d_6">
      <g>
       <use xlink:href="#m910620de7e" x="368.267318" y="471.089362" style="stroke: #000000; stroke-width: 0.8"/>
      </g>
     </g>
     <g id="text_3">
      <!-- 2024 -->
      <g transform="translate(346.634818 491.006706) scale(0.17 -0.17)">
       <use xlink:href="#DejaVuSans-32"/>
       <use xlink:href="#DejaVuSans-30" transform="translate(63.623047 0)"/>
       <use xlink:href="#DejaVuSans-32" transform="translate(127.246094 0)"/>
       <use xlink:href="#DejaVuSans-34" transform="translate(190.869141 0)"/>
      </g>
      <!-- Q2 -->
      <g transform="translate(356.168099 510.042987) scale(0.17 -0.17)">
       <use xlink:href="#DejaVuSans-51"/>
       <use xlink:href="#DejaVuSans-32" transform="translate(78.710938 0)"/>
      </g>
     </g>
    </g>
    <g id="xtick_4">
     <g id="line2d_7">
      <path d="M 419.142799 471.089362 
L 419.142799 24.156562 
" clip-path="url(#p217056051d)" style="fill: none; stroke-dasharray: 1.85,0.8; stroke-dashoffset: 0; stroke: #b0b0b0; stroke-opacity: 0.7; stroke-width: 0.5"/>
     </g>
     <g id="line2d_8">
      <g>
       <use xlink:href="#m910620de7e" x="419.142799" y="471.089362" style="stroke: #000000; stroke-width: 0.8"/>
      </g>
     </g>
     <g id="text_4">
      <!-- 2024 -->
      <g transform="translate(397.510299 491.006706) scale(0.17 -0.17)">
       <use xlink:href="#DejaVuSans-32"/>
       <use xlink:href="#DejaVuSans-30" transform="translate(63.623047 0)"/>
       <use xlink:href="#DejaVuSans-32" transform="translate(127.246094 0)"/>
       <use xlink:href="#DejaVuSans-34" transform="translate(190.869141 0)"/>
      </g>
      <!-- Q3 -->
      <g transform="translate(407.04358 510.042987) scale(0.17 -0.17)">
       <use xlink:href="#DejaVuSans-51"/>
       <use xlink:href="#DejaVuSans-33" transform="translate(78.710938 0)"/>
      </g>
     </g>
    </g>
    <g id="xtick_5">
     <g id="line2d_9">
      <path d="M 470.01828 471.089362 
L 470.01828 24.156562 
" clip-path="url(#p217056051d)" style="fill: none; stroke-dasharray: 1.85,0.8; stroke-dashoffset: 0; stroke: #b0b0b0; stroke-opacity: 0.7; stroke-width: 0.5"/>
     </g>
     <g id="line2d_10">
      <g>
       <use xlink:href="#m910620de7e" x="470.01828" y="471.089362" style="stroke: #000000; stroke-width: 0.8"/>
      </g>
     </g>
     <g id="text_5">
      <!-- 2024 -->
      <g transform="translate(448.38578 491.006706) scale(0.17 -0.17)">
       <use xlink:href="#DejaVuSans-32"/>
       <use xlink:href="#DejaVuSans-30" transform="translate(63.623047 0)"/>
       <use xlink:href="#DejaVuSans-32" transform="translate(127.246094 0)"/>
       <use xlink:href="#DejaVuSans-34" transform="translate(190.869141 0)"/>
      </g>
      <!-- Q4 -->
      <g transform="translate(457.919062 510.042987) scale(0.17 -0.17)">
       <use xlink:href="#DejaVuSans-51"/>
       <use xlink:href="#DejaVuSans-34" transform="translate(78.710938 0)"/>
      </g>
     </g>
    </g>
    <g id="xtick_6">
     <g id="line2d_11">
      <path d="M 519.787773 471.089362 
L 519.787773 24.156562 
" clip-path="url(#p217056051d)" style="fill: none; stroke-dasharray: 1.85,0.8; stroke-dashoffset: 0; stroke: #b0b0b0; stroke-opacity: 0.7; stroke-width: 0.5"/>
     </g>
     <g id="line2d_12">
      <g>
       <use xlink:href="#m910620de7e" x="519.787773" y="471.089362" style="stroke: #000000; stroke-width: 0.8"/>
      </g>
     </g>
     <g id="text_6">
      <!-- 2025 -->
      <g transform="translate(498.155273 491.006706) scale(0.17 -0.17)">
       <defs>
        <path id="DejaVuSans-35" d="M 691 4666 
L 3169 4666 
L 3169 4134 
L 1269 4134 
L 1269 2991 
Q 1406 3038 1543 3061 
Q 1681 3084 1819 3084 
Q 2600 3084 3056 2656 
Q 3513 2228 3513 1497 
Q 3513 744 3044 326 
Q 2575 -91 1722 -91 
Q 1428 -91 1123 -41 
Q 819 9 494 109 
L 494 744 
Q 775 591 1075 516 
Q 1375 441 1709 441 
Q 2250 441 2565 725 
Q 2881 1009 2881 1497 
Q 2881 1984 2565 2268 
Q 2250 2553 1709 2553 
Q 1456 2553 1204 2497 
Q 953 2441 691 2322 
L 691 4666 
z
" transform="scale(0.015625)"/>
       </defs>
       <use xlink:href="#DejaVuSans-32"/>
       <use xlink:href="#DejaVuSans-30" transform="translate(63.623047 0)"/>
       <use xlink:href="#DejaVuSans-32" transform="translate(127.246094 0)"/>
       <use xlink:href="#DejaVuSans-35" transform="translate(190.869141 0)"/>
      </g>
      <!-- Q1 -->
      <g transform="translate(507.688554 510.042987) scale(0.17 -0.17)">
       <defs>
        <path id="DejaVuSans-31" d="M 794 531 
L 1825 531 
L 1825 4091 
L 703 3866 
L 703 4441 
L 1819 4666 
L 2450 4666 
L 2450 531 
L 3481 531 
L 3481 0 
L 794 0 
L 794 531 
z
" transform="scale(0.015625)"/>
       </defs>
       <use xlink:href="#DejaVuSans-51"/>
       <use xlink:href="#DejaVuSans-31" transform="translate(78.710938 0)"/>
      </g>
     </g>
    </g>
    <g id="xtick_7">
     <g id="line2d_13">
      <path d="M 570.110259 471.089362 
L 570.110259 24.156562 
" clip-path="url(#p217056051d)" style="fill: none; stroke-dasharray: 1.85,0.8; stroke-dashoffset: 0; stroke: #b0b0b0; stroke-opacity: 0.7; stroke-width: 0.5"/>
     </g>
     <g id="line2d_14">
      <g>
       <use xlink:href="#m910620de7e" x="570.110259" y="471.089362" style="stroke: #000000; stroke-width: 0.8"/>
      </g>
     </g>
     <g id="text_7">
      <!-- 2025 -->
      <g transform="translate(548.477759 491.006706) scale(0.17 -0.17)">
       <use xlink:href="#DejaVuSans-32"/>
       <use xlink:href="#DejaVuSans-30" transform="translate(63.623047 0)"/>
       <use xlink:href="#DejaVuSans-32" transform="translate(127.246094 0)"/>
       <use xlink:href="#DejaVuSans-35" transform="translate(190.869141 0)"/>
      </g>
      <!-- Q2 -->
      <g transform="translate(558.011041 510.042987) scale(0.17 -0.17)">
       <use xlink:href="#DejaVuSans-51"/>
       <use xlink:href="#DejaVuSans-32" transform="translate(78.710938 0)"/>
      </g>
     </g>
    </g>
    <g id="xtick_8">
     <g id="line2d_15">
      <path d="M 620.985741 471.089362 
L 620.985741 24.156562 
" clip-path="url(#p217056051d)" style="fill: none; stroke-dasharray: 1.85,0.8; stroke-dashoffset: 0; stroke: #b0b0b0; stroke-opacity: 0.7; stroke-width: 0.5"/>
     </g>
     <g id="line2d_16">
      <g>
       <use xlink:href="#m910620de7e" x="620.985741" y="471.089362" style="stroke: #000000; stroke-width: 0.8"/>
      </g>
     </g>
     <g id="text_8">
      <!-- 2025 -->
      <g transform="translate(599.353241 491.006706) scale(0.17 -0.17)">
       <use xlink:href="#DejaVuSans-32"/>
       <use xlink:href="#DejaVuSans-30" transform="translate(63.623047 0)"/>
       <use xlink:href="#DejaVuSans-32" transform="translate(127.246094 0)"/>
       <use xlink:href="#DejaVuSans-35" transform="translate(190.869141 0)"/>
      </g>
      <!-- Q3 -->
      <g transform="translate(608.886522 510.042987) scale(0.17 -0.17)">
       <use xlink:href="#DejaVuSans-51"/>
       <use xlink:href="#DejaVuSans-33" transform="translate(78.710938 0)"/>
      </g>
     </g>
    </g>
    <g id="xtick_9">
     <g id="line2d_17">
      <path d="M 671.861222 471.089362 
L 671.861222 24.156562 
" clip-path="url(#p217056051d)" style="fill: none; stroke-dasharray: 1.85,0.8; stroke-dashoffset: 0; stroke: #b0b0b0; stroke-opacity: 0.7; stroke-width: 0.5"/>
     </g>
     <g id="line2d_18">
      <g>
       <use xlink:href="#m910620de7e" x="671.861222" y="471.089362" style="stroke: #000000; stroke-width: 0.8"/>
      </g>
     </g>
     <g id="text_9">
      <!-- 2025 -->
      <g transform="translate(650.228722 491.006706) scale(0.17 -0.17)">
       <use xlink:href="#DejaVuSans-32"/>
       <use xlink:href="#DejaVuSans-30" transform="translate(63.623047 0)"/>
       <use xlink:href="#DejaVuSans-32" transform="translate(127.246094 0)"/>
       <use xlink:href="#DejaVuSans-35" transform="translate(190.869141 0)"/>
      </g>
      <!-- Q4 -->
      <g transform="translate(659.762003 510.042987) scale(0.17 -0.17)">
       <use xlink:href="#DejaVuSans-51"/>
       <use xlink:href="#DejaVuSans-34" transform="translate(78.710938 0)"/>
      </g>
     </g>
    </g>
   </g>
   <g id="matplotlib.axis_2">
    <g id="ytick_1">
     <g id="line2d_19">
      <path d="M 35.475313 466.743122 
L 702.165312 466.743122 
" clip-path="url(#p217056051d)" style="fill: none; stroke-dasharray: 1.85,0.8; stroke-dashoffset: 0; stroke: #b0b0b0; stroke-opacity: 0.7; stroke-width: 0.5"/>
     </g>
     <g id="line2d_20">
      <defs>
       <path id="m2d05d88023" d="M 0 0 
L -3.5 0 
" style="stroke: #000000; stroke-width: 0.8"/>
      </defs>
      <g>
       <use xlink:href="#m2d05d88023" x="35.475313" y="466.743122" style="stroke: #000000; stroke-width: 0.8"/>
      </g>
     </g>
     <g id="text_10">
      <!-- 0.2 -->
      <g transform="translate(1.44 473.201794) scale(0.17 -0.17)">
       <defs>
        <path id="DejaVuSans-2e" d="M 684 794 
L 1344 794 
L 1344 0 
L 684 0 
L 684 794 
z
" transform="scale(0.015625)"/>
       </defs>
       <use xlink:href="#DejaVuSans-30"/>
       <use xlink:href="#DejaVuSans-2e" transform="translate(63.623047 0)"/>
       <use xlink:href="#DejaVuSans-32" transform="translate(95.410156 0)"/>
      </g>
     </g>
    </g>
    <g id="ytick_2">
     <g id="line2d_21">
      <path d="M 35.475313 395.451868 
L 702.165312 395.451868 
" clip-path="url(#p217056051d)" style="fill: none; stroke-dasharray: 1.85,0.8; stroke-dashoffset: 0; stroke: #b0b0b0; stroke-opacity: 0.7; stroke-width: 0.5"/>
     </g>
     <g id="line2d_22">
      <g>
       <use xlink:href="#m2d05d88023" x="35.475313" y="395.451868" style="stroke: #000000; stroke-width: 0.8"/>
      </g>
     </g>
     <g id="text_11">
      <!-- 0.3 -->
      <g transform="translate(1.44 401.910539) scale(0.17 -0.17)">
       <use xlink:href="#DejaVuSans-30"/>
       <use xlink:href="#DejaVuSans-2e" transform="translate(63.623047 0)"/>
       <use xlink:href="#DejaVuSans-33" transform="translate(95.410156 0)"/>
      </g>
     </g>
    </g>
    <g id="ytick_3">
     <g id="line2d_23">
      <path d="M 35.475313 324.160613 
L 702.165312 324.160613 
" clip-path="url(#p217056051d)" style="fill: none; stroke-dasharray: 1.85,0.8; stroke-dashoffset: 0; stroke: #b0b0b0; stroke-opacity: 0.7; stroke-width: 0.5"/>
     </g>
     <g id="line2d_24">
      <g>
       <use xlink:href="#m2d05d88023" x="35.475313" y="324.160613" style="stroke: #000000; stroke-width: 0.8"/>
      </g>
     </g>
     <g id="text_12">
      <!-- 0.4 -->
      <g transform="translate(1.44 330.619285) scale(0.17 -0.17)">
       <use xlink:href="#DejaVuSans-30"/>
       <use xlink:href="#DejaVuSans-2e" transform="translate(63.623047 0)"/>
       <use xlink:href="#DejaVuSans-34" transform="translate(95.410156 0)"/>
      </g>
     </g>
    </g>
    <g id="ytick_4">
     <g id="line2d_25">
      <path d="M 35.475313 252.869359 
L 702.165312 252.869359 
" clip-path="url(#p217056051d)" style="fill: none; stroke-dasharray: 1.85,0.8; stroke-dashoffset: 0; stroke: #b0b0b0; stroke-opacity: 0.7; stroke-width: 0.5"/>
     </g>
     <g id="line2d_26">
      <g>
       <use xlink:href="#m2d05d88023" x="35.475313" y="252.869359" style="stroke: #000000; stroke-width: 0.8"/>
      </g>
     </g>
     <g id="text_13">
      <!-- 0.5 -->
      <g transform="translate(1.44 259.328031) scale(0.17 -0.17)">
       <use xlink:href="#DejaVuSans-30"/>
       <use xlink:href="#DejaVuSans-2e" transform="translate(63.623047 0)"/>
       <use xlink:href="#DejaVuSans-35" transform="translate(95.410156 0)"/>
      </g>
     </g>
    </g>
    <g id="ytick_5">
     <g id="line2d_27">
      <path d="M 35.475313 181.578105 
L 702.165312 181.578105 
" clip-path="url(#p217056051d)" style="fill: none; stroke-dasharray: 1.85,0.8; stroke-dashoffset: 0; stroke: #b0b0b0; stroke-opacity: 0.7; stroke-width: 0.5"/>
     </g>
     <g id="line2d_28">
      <g>
       <use xlink:href="#m2d05d88023" x="35.475313" y="181.578105" style="stroke: #000000; stroke-width: 0.8"/>
      </g>
     </g>
     <g id="text_14">
      <!-- 0.6 -->
      <g transform="translate(1.44 188.036776) scale(0.17 -0.17)">
       <defs>
        <path id="DejaVuSans-36" d="M 2113 2584 
Q 1688 2584 1439 2293 
Q 1191 2003 1191 1497 
Q 1191 994 1439 701 
Q 1688 409 2113 409 
Q 2538 409 2786 701 
Q 3034 994 3034 1497 
Q 3034 2003 2786 2293 
Q 2538 2584 2113 2584 
z
M 3366 4563 
L 3366 3988 
Q 3128 4100 2886 4159 
Q 2644 4219 2406 4219 
Q 1781 4219 1451 3797 
Q 1122 3375 1075 2522 
Q 1259 2794 1537 2939 
Q 1816 3084 2150 3084 
Q 2853 3084 3261 2657 
Q 3669 2231 3669 1497 
Q 3669 778 3244 343 
Q 2819 -91 2113 -91 
Q 1303 -91 875 529 
Q 447 1150 447 2328 
Q 447 3434 972 4092 
Q 1497 4750 2381 4750 
Q 2619 4750 2861 4703 
Q 3103 4656 3366 4563 
z
" transform="scale(0.015625)"/>
       </defs>
       <use xlink:href="#DejaVuSans-30"/>
       <use xlink:href="#DejaVuSans-2e" transform="translate(63.623047 0)"/>
       <use xlink:href="#DejaVuSans-36" transform="translate(95.410156 0)"/>
      </g>
     </g>
    </g>
    <g id="ytick_6">
     <g id="line2d_29">
      <path d="M 35.475313 110.28685 
L 702.165312 110.28685 
" clip-path="url(#p217056051d)" style="fill: none; stroke-dasharray: 1.85,0.8; stroke-dashoffset: 0; stroke: #b0b0b0; stroke-opacity: 0.7; stroke-width: 0.5"/>
     </g>
     <g id="line2d_30">
      <g>
       <use xlink:href="#m2d05d88023" x="35.475313" y="110.28685" style="stroke: #000000; stroke-width: 0.8"/>
      </g>
     </g>
     <g id="text_15">
      <!-- 0.7 -->
      <g transform="translate(1.44 116.745522) scale(0.17 -0.17)">
       <defs>
        <path id="DejaVuSans-37" d="M 525 4666 
L 3525 4666 
L 3525 4397 
L 1831 0 
L 1172 0 
L 2766 4134 
L 525 4134 
L 525 4666 
z
" transform="scale(0.015625)"/>
       </defs>
       <use xlink:href="#DejaVuSans-30"/>
       <use xlink:href="#DejaVuSans-2e" transform="translate(63.623047 0)"/>
       <use xlink:href="#DejaVuSans-37" transform="translate(95.410156 0)"/>
      </g>
     </g>
    </g>
    <g id="ytick_7">
     <g id="line2d_31">
      <path d="M 35.475313 38.995596 
L 702.165312 38.995596 
" clip-path="url(#p217056051d)" style="fill: none; stroke-dasharray: 1.85,0.8; stroke-dashoffset: 0; stroke: #b0b0b0; stroke-opacity: 0.7; stroke-width: 0.5"/>
     </g>
     <g id="line2d_32">
      <g>
       <use xlink:href="#m2d05d88023" x="35.475313" y="38.995596" style="stroke: #000000; stroke-width: 0.8"/>
      </g>
     </g>
     <g id="text_16">
      <!-- 0.8 -->
      <g transform="translate(1.44 45.454268) scale(0.17 -0.17)">
       <defs>
        <path id="DejaVuSans-38" d="M 2034 2216 
Q 1584 2216 1326 1975 
Q 1069 1734 1069 1313 
Q 1069 891 1326 650 
Q 1584 409 2034 409 
Q 2484 409 2743 651 
Q 3003 894 3003 1313 
Q 3003 1734 2745 1975 
Q 2488 2216 2034 2216 
z
M 1403 2484 
Q 997 2584 770 2862 
Q 544 3141 544 3541 
Q 544 4100 942 4425 
Q 1341 4750 2034 4750 
Q 2731 4750 3128 4425 
Q 3525 4100 3525 3541 
Q 3525 3141 3298 2862 
Q 3072 2584 2669 2484 
Q 3125 2378 3379 2068 
Q 3634 1759 3634 1313 
Q 3634 634 3220 271 
Q 2806 -91 2034 -91 
Q 1263 -91 848 271 
Q 434 634 434 1313 
Q 434 1759 690 2068 
Q 947 2378 1403 2484 
z
M 1172 3481 
Q 1172 3119 1398 2916 
Q 1625 2713 2034 2713 
Q 2441 2713 2670 2916 
Q 2900 3119 2900 3481 
Q 2900 3844 2670 4047 
Q 2441 4250 2034 4250 
Q 1625 4250 1398 4047 
Q 1172 3844 1172 3481 
z
" transform="scale(0.015625)"/>
       </defs>
       <use xlink:href="#DejaVuSans-30"/>
       <use xlink:href="#DejaVuSans-2e" transform="translate(63.623047 0)"/>
       <use xlink:href="#DejaVuSans-38" transform="translate(95.410156 0)"/>
      </g>
     </g>
    </g>
   </g>
   <g id="line2d_33">
    <path d="M 65.779403 214.518639 
L 267.622345 205.638561 
" clip-path="url(#p217056051d)" style="fill: none; stroke: #808080; stroke-opacity: 0.5; stroke-linecap: square"/>
    <defs>
     <path id="m16a4f39ac5" d="M 0 5 
C 1.326016 5 2.597899 4.473168 3.535534 3.535534 
C 4.473168 2.597899 5 1.326016 5 0 
C 5 -1.326016 4.473168 -2.597899 3.535534 -3.535534 
C 2.597899 -4.473168 1.326016 -5 0 -5 
C -1.326016 -5 -2.597899 -4.473168 -3.535534 -3.535534 
C -4.473168 -2.597899 -5 -1.326016 -5 0 
C -5 1.326016 -4.473168 2.597899 -3.535534 3.535534 
C -2.597899 4.473168 -1.326016 5 0 5 
z
" style="stroke: #808080; stroke-opacity: 0.5"/>
    </defs>
    <g clip-path="url(#p217056051d)">
     <use xlink:href="#m16a4f39ac5" x="65.779403" y="214.518639" style="fill: #808080; fill-opacity: 0.5; stroke: #808080; stroke-opacity: 0.5"/>
     <use xlink:href="#m16a4f39ac5" x="267.622345" y="205.638561" style="fill: #808080; fill-opacity: 0.5; stroke: #808080; stroke-opacity: 0.5"/>
    </g>
   </g>
   <g id="patch_3">
    <path d="M 35.475313 471.089362 
L 35.475313 24.156562 
" style="fill: none; stroke: #000000; stroke-width: 0.8; stroke-linejoin: miter; stroke-linecap: square"/>
   </g>
   <g id="patch_4">
    <path d="M 702.165312 471.089362 
L 702.165312 24.156562 
" style="fill: none; stroke: #000000; stroke-width: 0.8; stroke-linejoin: miter; stroke-linecap: square"/>
   </g>
   <g id="patch_5">
    <path d="M 35.475313 471.089362 
L 702.165313 471.089362 
" style="fill: none; stroke: #000000; stroke-width: 0.8; stroke-linejoin: miter; stroke-linecap: square"/>
   </g>
   <g id="patch_6">
    <path d="M 35.475313 24.156562 
L 702.165313 24.156562 
" style="fill: none; stroke: #000000; stroke-width: 0.8; stroke-linejoin: miter; stroke-linecap: square"/>
   </g>
   <g id="text_17">
    <!-- theta_m_gross -->
    <g transform="translate(279.178906 18.156562) scale(0.22 -0.22)">
     <defs>
      <path id="DejaVuSans-Bold-74" d="M 1759 4494 
L 1759 3500 
L 2913 3500 
L 2913 2700 
L 1759 2700 
L 1759 1216 
Q 1759 972 1856 886 
Q 1953 800 2241 800 
L 2816 800 
L 2816 0 
L 1856 0 
Q 1194 0 917 276 
Q 641 553 641 1216 
L 641 2700 
L 84 2700 
L 84 3500 
L 641 3500 
L 641 4494 
L 1759 4494 
z
" transform="scale(0.015625)"/>
      <path id="DejaVuSans-Bold-68" d="M 4056 2131 
L 4056 0 
L 2931 0 
L 2931 347 
L 2931 1625 
Q 2931 2084 2911 2256 
Q 2891 2428 2841 2509 
Q 2775 2619 2662 2680 
Q 2550 2741 2406 2741 
Q 2056 2741 1856 2470 
Q 1656 2200 1656 1722 
L 1656 0 
L 538 0 
L 538 4863 
L 1656 4863 
L 1656 2988 
Q 1909 3294 2193 3439 
Q 2478 3584 2822 3584 
Q 3428 3584 3742 3212 
Q 4056 2841 4056 2131 
z
" transform="scale(0.015625)"/>
      <path id="DejaVuSans-Bold-65" d="M 4031 1759 
L 4031 1441 
L 1416 1441 
Q 1456 1047 1700 850 
Q 1944 653 2381 653 
Q 2734 653 3104 758 
Q 3475 863 3866 1075 
L 3866 213 
Q 3469 63 3072 -14 
Q 2675 -91 2278 -91 
Q 1328 -91 801 392 
Q 275 875 275 1747 
Q 275 2603 792 3093 
Q 1309 3584 2216 3584 
Q 3041 3584 3536 3087 
Q 4031 2591 4031 1759 
z
M 2881 2131 
Q 2881 2450 2695 2645 
Q 2509 2841 2209 2841 
Q 1884 2841 1681 2658 
Q 1478 2475 1428 2131 
L 2881 2131 
z
" transform="scale(0.015625)"/>
      <path id="DejaVuSans-Bold-61" d="M 2106 1575 
Q 1756 1575 1579 1456 
Q 1403 1338 1403 1106 
Q 1403 894 1545 773 
Q 1688 653 1941 653 
Q 2256 653 2472 879 
Q 2688 1106 2688 1447 
L 2688 1575 
L 2106 1575 
z
M 3816 1997 
L 3816 0 
L 2688 0 
L 2688 519 
Q 2463 200 2181 54 
Q 1900 -91 1497 -91 
Q 953 -91 614 226 
Q 275 544 275 1050 
Q 275 1666 698 1953 
Q 1122 2241 2028 2241 
L 2688 2241 
L 2688 2328 
Q 2688 2594 2478 2717 
Q 2269 2841 1825 2841 
Q 1466 2841 1156 2769 
Q 847 2697 581 2553 
L 581 3406 
Q 941 3494 1303 3539 
Q 1666 3584 2028 3584 
Q 2975 3584 3395 3211 
Q 3816 2838 3816 1997 
z
" transform="scale(0.015625)"/>
      <path id="DejaVuSans-Bold-5f" d="M 3200 -916 
L 3200 -1509 
L 0 -1509 
L 0 -916 
L 3200 -916 
z
" transform="scale(0.015625)"/>
      <path id="DejaVuSans-Bold-6d" d="M 3781 2919 
Q 3994 3244 4286 3414 
Q 4578 3584 4928 3584 
Q 5531 3584 5847 3212 
Q 6163 2841 6163 2131 
L 6163 0 
L 5038 0 
L 5038 1825 
Q 5041 1866 5042 1909 
Q 5044 1953 5044 2034 
Q 5044 2406 4934 2573 
Q 4825 2741 4581 2741 
Q 4263 2741 4089 2478 
Q 3916 2216 3909 1719 
L 3909 0 
L 2784 0 
L 2784 1825 
Q 2784 2406 2684 2573 
Q 2584 2741 2328 2741 
Q 2006 2741 1831 2477 
Q 1656 2213 1656 1722 
L 1656 0 
L 531 0 
L 531 3500 
L 1656 3500 
L 1656 2988 
Q 1863 3284 2130 3434 
Q 2397 3584 2719 3584 
Q 3081 3584 3359 3409 
Q 3638 3234 3781 2919 
z
" transform="scale(0.015625)"/>
      <path id="DejaVuSans-Bold-67" d="M 2919 594 
Q 2688 288 2409 144 
Q 2131 0 1766 0 
Q 1125 0 706 504 
Q 288 1009 288 1791 
Q 288 2575 706 3076 
Q 1125 3578 1766 3578 
Q 2131 3578 2409 3434 
Q 2688 3291 2919 2981 
L 2919 3500 
L 4044 3500 
L 4044 353 
Q 4044 -491 3511 -936 
Q 2978 -1381 1966 -1381 
Q 1638 -1381 1331 -1331 
Q 1025 -1281 716 -1178 
L 716 -306 
Q 1009 -475 1290 -558 
Q 1572 -641 1856 -641 
Q 2406 -641 2662 -400 
Q 2919 -159 2919 353 
L 2919 594 
z
M 2181 2772 
Q 1834 2772 1640 2515 
Q 1447 2259 1447 1791 
Q 1447 1309 1634 1061 
Q 1822 813 2181 813 
Q 2531 813 2725 1069 
Q 2919 1325 2919 1791 
Q 2919 2259 2725 2515 
Q 2531 2772 2181 2772 
z
" transform="scale(0.015625)"/>
      <path id="DejaVuSans-Bold-72" d="M 3138 2547 
Q 2991 2616 2845 2648 
Q 2700 2681 2553 2681 
Q 2122 2681 1889 2404 
Q 1656 2128 1656 1613 
L 1656 0 
L 538 0 
L 538 3500 
L 1656 3500 
L 1656 2925 
Q 1872 3269 2151 3426 
Q 2431 3584 2822 3584 
Q 2878 3584 2943 3579 
Q 3009 3575 3134 3559 
L 3138 2547 
z
" transform="scale(0.015625)"/>
      <path id="DejaVuSans-Bold-6f" d="M 2203 2784 
Q 1831 2784 1636 2517 
Q 1441 2250 1441 1747 
Q 1441 1244 1636 976 
Q 1831 709 2203 709 
Q 2569 709 2762 976 
Q 2956 1244 2956 1747 
Q 2956 2250 2762 2517 
Q 2569 2784 2203 2784 
z
M 2203 3584 
Q 3106 3584 3614 3096 
Q 4122 2609 4122 1747 
Q 4122 884 3614 396 
Q 3106 -91 2203 -91 
Q 1297 -91 786 396 
Q 275 884 275 1747 
Q 275 2609 786 3096 
Q 1297 3584 2203 3584 
z
" transform="scale(0.015625)"/>
      <path id="DejaVuSans-Bold-73" d="M 3272 3391 
L 3272 2541 
Q 2913 2691 2578 2766 
Q 2244 2841 1947 2841 
Q 1628 2841 1473 2761 
Q 1319 2681 1319 2516 
Q 1319 2381 1436 2309 
Q 1553 2238 1856 2203 
L 2053 2175 
Q 2913 2066 3209 1816 
Q 3506 1566 3506 1031 
Q 3506 472 3093 190 
Q 2681 -91 1863 -91 
Q 1516 -91 1145 -36 
Q 775 19 384 128 
L 384 978 
Q 719 816 1070 734 
Q 1422 653 1784 653 
Q 2113 653 2278 743 
Q 2444 834 2444 1013 
Q 2444 1163 2330 1236 
Q 2216 1309 1875 1350 
L 1678 1375 
Q 931 1469 631 1722 
Q 331 1975 331 2491 
Q 331 3047 712 3315 
Q 1094 3584 1881 3584 
Q 2191 3584 2531 3537 
Q 2872 3491 3272 3391 
z
" transform="scale(0.015625)"/>
     </defs>
     <use xlink:href="#DejaVuSans-Bold-74"/>
     <use xlink:href="#DejaVuSans-Bold-68" transform="translate(47.802734 0)"/>
     <use xlink:href="#DejaVuSans-Bold-65" transform="translate(118.994141 0)"/>
     <use xlink:href="#DejaVuSans-Bold-74" transform="translate(186.816406 0)"/>
     <use xlink:href="#DejaVuSans-Bold-61" transform="translate(234.619141 0)"/>
     <use xlink:href="#DejaVuSans-Bold-5f" transform="translate(302.099609 0)"/>
     <use xlink:href="#DejaVuSans-Bold-6d" transform="translate(352.099609 0)"/>
     <use xlink:href="#DejaVuSans-Bold-5f" transform="translate(456.298828 0)"/>
     <use xlink:href="#DejaVuSans-Bold-67" transform="translate(506.298828 0)"/>
     <use xlink:href="#DejaVuSans-Bold-72" transform="translate(577.880859 0)"/>
     <use xlink:href="#DejaVuSans-Bold-6f" transform="translate(627.197266 0)"/>
     <use xlink:href="#DejaVuSans-Bold-73" transform="translate(695.898438 0)"/>
     <use xlink:href="#DejaVuSans-Bold-73" transform="translate(755.419922 0)"/>
    </g>
   </g>
   <g id="PathCollection_6">
    <defs>
     <path id="m98ccea95da" d="M -5.477226 5.477226 
L 5.477226 -5.477226 
M -5.477226 -5.477226 
L 5.477226 5.477226 
" style="stroke: #000000; stroke-width: 2"/>
    </defs>
    <g clip-path="url(#p217056051d)">
     <use xlink:href="#m98ccea95da" x="470.01828" y="196.54595" style="stroke: #000000; stroke-width: 2"/>
     <use xlink:href="#m98ccea95da" x="519.787773" y="183.690754" style="stroke: #000000; stroke-width: 2"/>
     <use xlink:href="#m98ccea95da" x="570.110259" y="185.036649" style="stroke: #000000; stroke-width: 2"/>
     <use xlink:href="#m98ccea95da" x="620.985741" y="184.577539" style="stroke: #000000; stroke-width: 2"/>
     <use xlink:href="#m98ccea95da" x="671.861222" y="183.052418" style="stroke: #000000; stroke-width: 2"/>
    </g>
   </g>
  </g>
 </g>
 <defs>
  <clipPath id="p217056051d">
   <rect x="35.475313" y="24.156562" width="666.69" height="446.9328"/>
  </clipPath>
 </defs>
</svg>
