<?xml version="1.0" encoding="utf-8" standalone="no"?>
<!DOCTYPE svg PUBLIC "-//W3C//DTD SVG 1.1//EN"
  "http://www.w3.org/Graphics/SVG/1.1/DTD/svg11.dtd">
<svg xmlns:xlink="http://www.w3.org/1999/xlink" width="703.605313pt" height="515.018456pt" viewBox="0 0 703.605313 515.018456" xmlns="http://www.w3.org/2000/svg" version="1.1">
 <metadata>
  <rdf:RDF xmlns:dc="http://purl.org/dc/elements/1.1/" xmlns:cc="http://creativecommons.org/ns#" xmlns:rdf="http://www.w3.org/1999/02/22-rdf-syntax-ns#">
   <cc:Work>
    <dc:type rdf:resource="http://purl.org/dc/dcmitype/StillImage"/>
    <dc:date>2026-03-02T15:24:39.174423</dc:date>
    <dc:format>image/svg+xml</dc:format>
    <dc:creator>
     <cc:Agent>
      <dc:title>Matplotlib v3.10.6, https://matplotlib.org/</dc:title>
     </cc:Agent>
    </dc:creator>
   </cc:Work>
  </rdf:RDF>
 </metadata>
 <defs>
  <style type="text/css">*{stroke-linejoin: round; stroke-linecap: butt}</style>
 </defs>
 <g id="figure_1">
  <g id="patch_1">
   <path d="M 0 515.018456 
L 703.605313 515.018456 
L 703.605313 0 
L 0 0 
z
" style="fill: #ffffff"/>
  </g>
  <g id="axes_1">
   <g id="patch_2">
    <path d="M 35.475313 471.089362 
L 702.165312 471.089362 
L 702.165312 24.156562 
L 35.475313 24.156562 
z
" style="fill: #ffffff"/>
   </g>
   <g id="PathCollection_1">
    <defs>
     <path id="m03da04cd6e" d="M 0 6.708204 
L 6.708204 0 
L 0 -6.708204 
L -6.708204 0 
z
" style="stroke: #000000; stroke-opacity: 0.85"/>
    </defs>
    <g clip-path="url(#p92dc87df39)">
     <use xlink:href="#m03da04cd6e" x="419.142799" y="134.825479" style="fill: #ffa500; fill-opacity: 0.85; stroke: #000000; stroke-opacity: 0.85"/>
     <use xlink:href="#m03da04cd6e" x="470.01828" y="134.825479" style="fill: #ffa500; fill-opacity: 0.85; stroke: #000000; stroke-opacity: 0.85"/>
     <use xlink:href="#m03da04cd6e" x="519.787773" y="452.165854" style="fill: #ffa500; fill-opacity: 0.85; stroke: #000000; stroke-opacity: 0.85"/>
     <use xlink:href="#m03da04cd6e" x="570.110259" y="380.993956" style="fill: #ffa500; fill-opacity: 0.85; stroke: #000000; stroke-opacity: 0.85"/>
     <use xlink:href="#m03da04cd6e" x="620.985741" y="379.697578" style="fill: #ffa500; fill-opacity: 0.85; stroke: #000000; stroke-opacity: 0.85"/>
     <use xlink:href="#m03da04cd6e" x="671.861222" y="375.725538" style="fill: #ffa500; fill-opacity: 0.85; stroke: #000000; stroke-opacity: 0.85"/>
    </g>
   </g>
   <g id="PathCollection_2">
    <defs>
     <path id="mea4c7b5727" d="M -0 4.472136 
L 4.472136 -4.472136 
L -4.472136 -4.472136 
z
" style="stroke: #ff0000; stroke-opacity: 0.7"/>
    </defs>
    <g clip-path="url(#p92dc87df39)">
     <use xlink:href="#mea4c7b5727" x="419.142799" y="450.544618" style="fill: #ff0000; fill-opacity: 0.7; stroke: #ff0000; stroke-opacity: 0.7"/>
     <use xlink:href="#mea4c7b5727" x="470.01828" y="450.774235" style="fill: #ff0000; fill-opacity: 0.7; stroke: #ff0000; stroke-opacity: 0.7"/>
     <use xlink:href="#mea4c7b5727" x="519.787773" y="450.48986" style="fill: #ff0000; fill-opacity: 0.7; stroke: #ff0000; stroke-opacity: 0.7"/>
     <use xlink:href="#mea4c7b5727" x="570.110259" y="450.33863" style="fill: #ff0000; fill-opacity: 0.7; stroke: #ff0000; stroke-opacity: 0.7"/>
     <use xlink:href="#mea4c7b5727" x="620.985741" y="450.165034" style="fill: #ff0000; fill-opacity: 0.7; stroke: #ff0000; stroke-opacity: 0.7"/>
     <use xlink:href="#mea4c7b5727" x="671.861222" y="450.196561" style="fill: #ff0000; fill-opacity: 0.7; stroke: #ff0000; stroke-opacity: 0.7"/>
    </g>
   </g>
   <g id="PathCollection_3">
    <defs>
     <path id="maf62c8de49" d="M -5 5 
L 5 5 
L 5 -5 
L -5 -5 
z
" style="stroke: #000000"/>
    </defs>
    <g clip-path="url(#p92dc87df39)">
     <use xlink:href="#maf62c8de49" x="419.142799" y="444.601272" style="fill: #0000ff; stroke: #000000"/>
     <use xlink:href="#maf62c8de49" x="470.01828" y="445.476102" style="fill: #0000ff; stroke: #000000"/>
     <use xlink:href="#maf62c8de49" x="519.787773" y="443.96626" style="fill: #0000ff; stroke: #000000"/>
     <use xlink:href="#maf62c8de49" x="570.110259" y="443.189632" style="fill: #0000ff; stroke: #000000"/>
     <use xlink:href="#maf62c8de49" x="620.985741" y="442.15241" style="fill: #0000ff; stroke: #000000"/>
     <use xlink:href="#maf62c8de49" x="671.861222" y="442.245084" style="fill: #0000ff; stroke: #000000"/>
    </g>
   </g>
   <g id="PathCollection_4">
    <defs>
     <path id="m273458a3d6" d="M 0 -4.472136 
L -4.472136 4.472136 
L 4.472136 4.472136 
z
" style="stroke: #008000; stroke-opacity: 0.7"/>
    </defs>
    <g clip-path="url(#p92dc87df39)">
     <use xlink:href="#m273458a3d6" x="419.142799" y="417.016895" style="fill: #008000; fill-opacity: 0.7; stroke: #008000; stroke-opacity: 0.7"/>
     <use xlink:href="#m273458a3d6" x="470.01828" y="423.19729" style="fill: #008000; fill-opacity: 0.7; stroke: #008000; stroke-opacity: 0.7"/>
     <use xlink:href="#m273458a3d6" x="519.787773" y="414.704741" style="fill: #008000; fill-opacity: 0.7; stroke: #008000; stroke-opacity: 0.7"/>
     <use xlink:href="#m273458a3d6" x="570.110259" y="410.637383" style="fill: #008000; fill-opacity: 0.7; stroke: #008000; stroke-opacity: 0.7"/>
     <use xlink:href="#m273458a3d6" x="620.985741" y="405.995101" style="fill: #008000; fill-opacity: 0.7; stroke: #008000; stroke-opacity: 0.7"/>
     <use xlink:href="#m273458a3d6" x="671.861222" y="407.014032" style="fill: #008000; fill-opacity: 0.7; stroke: #008000; stroke-opacity: 0.7"/>
    </g>
   </g>
   <g id="PathCollection_5">
    <defs>
     <path id="C0_0_c5be8bab7e" d="M 0 5.477226 
C 1.452577 5.477226 2.845856 4.900111 3.872983 3.872983 
C 4.900111 2.845856 5.477226 1.452577 5.477226 -0 
C 5.477226 -1.452577 4.900111 -2.845856 3.872983 -3.872983 
C 2.845856 -4.900111 1.452577 -5.477226 0 -5.477226 
C -1.452577 -5.477226 -2.845856 -4.900111 -3.872983 -3.872983 
C -4.900111 -2.845856 -5.477226 -1.452577 -5.477226 0 
C -5.477226 1.452577 -4.900111 2.845856 -3.872983 3.872983 
C -2.845856 4.900111 -1.452577 5.477226 0 5.477226 
z
"/>
    </defs>
    <g clip-path="url(#p92dc87df39)">
     <use xlink:href="#C0_0_c5be8bab7e" x="419.142799" y="106.607891" style="fill: none; stroke: #000000; stroke-opacity: 0.95; stroke-width: 1.6"/>
    </g>
    <g clip-path="url(#p92dc87df39)">
     <use xlink:href="#C0_0_c5be8bab7e" x="470.01828" y="106.60916" style="fill: none; stroke: #000000; stroke-opacity: 0.95; stroke-width: 1.6"/>
    </g>
    <g clip-path="url(#p92dc87df39)">
     <use xlink:href="#C0_0_c5be8bab7e" x="519.787773" y="352.06826" style="fill: none; stroke: #000000; stroke-opacity: 0.95; stroke-width: 1.6"/>
    </g>
    <g clip-path="url(#p92dc87df39)">
     <use xlink:href="#C0_0_c5be8bab7e" x="570.110259" y="365.715253" style="fill: none; stroke: #000000; stroke-opacity: 0.95; stroke-width: 1.6"/>
    </g>
    <g clip-path="url(#p92dc87df39)">
     <use xlink:href="#C0_0_c5be8bab7e" x="620.985741" y="367.641999" style="fill: none; stroke: #000000; stroke-opacity: 0.95; stroke-width: 1.6"/>
    </g>
    <g clip-path="url(#p92dc87df39)">
     <use xlink:href="#C0_0_c5be8bab7e" x="671.861222" y="363.219466" style="fill: none; stroke: #000000; stroke-opacity: 0.95; stroke-width: 1.6"/>
    </g>
   </g>
   <g id="matplotlib.axis_1">
    <g id="xtick_1">
     <g id="line2d_1">
      <path d="M 65.779403 471.089362 
L 65.779403 24.156562 
" clip-path="url(#p92dc87df39)" style="fill: none; stroke-dasharray: 1.85,0.8; stroke-dashoffset: 0; stroke: #b0b0b0; stroke-opacity: 0.7; stroke-width: 0.5"/>
     </g>
     <g id="line2d_2">
      <defs>
       <path id="m3e8bf3b87f" d="M 0 0 
L 0 3.5 
" style="stroke: #000000; stroke-width: 0.8"/>
      </defs>
      <g>
       <use xlink:href="#m3e8bf3b87f" x="65.779403" y="471.089362" style="stroke: #000000; stroke-width: 0.8"/>
      </g>
     </g>
     <g id="text_1">
      <!-- 2022 -->
      <g transform="translate(44.146903 491.006706) scale(0.17 -0.17)">
       <defs>
        <path id="DejaVuSans-32" d="M 1228 531 
L 3431 531 
L 3431 0 
L 469 0 
L 469 531 
Q 828 903 1448 1529 
Q 2069 2156 2228 2338 
Q 2531 2678 2651 2914 
Q 2772 3150 2772 3378 
Q 2772 3750 2511 3984 
Q 2250 4219 1831 4219 
Q 1534 4219 1204 4116 
Q 875 4013 500 3803 
L 500 4441 
Q 881 4594 1212 4672 
Q 1544 4750 1819 4750 
Q 2544 4750 2975 4387 
Q 3406 4025 3406 3419 
Q 3406 3131 3298 2873 
Q 3191 2616 2906 2266 
Q 2828 2175 2409 1742 
Q 1991 1309 1228 531 
z
" transform="scale(0.015625)"/>
        <path id="DejaVuSans-30" d="M 2034 4250 
Q 1547 4250 1301 3770 
Q 1056 3291 1056 2328 
Q 1056 1369 1301 889 
Q 1547 409 2034 409 
Q 2525 409 2770 889 
Q 3016 1369 3016 2328 
Q 3016 3291 2770 3770 
Q 2525 4250 2034 4250 
z
M 2034 4750 
Q 2819 4750 3233 4129 
Q 3647 3509 3647 2328 
Q 3647 1150 3233 529 
Q 2819 -91 2034 -91 
Q 1250 -91 836 529 
Q 422 1150 422 2328 
Q 422 3509 836 4129 
Q 1250 4750 2034 4750 
z
" transform="scale(0.015625)"/>
       </defs>
       <use xlink:href="#DejaVuSans-32"/>
       <use xlink:href="#DejaVuSans-30" transform="translate(63.623047 0)"/>
       <use xlink:href="#DejaVuSans-32" transform="translate(127.246094 0)"/>
       <use xlink:href="#DejaVuSans-32" transform="translate(190.869141 0)"/>
      </g>
      <!-- Q4 -->
      <g transform="translate(53.680185 510.042987) scale(0.17 -0.17)">
       <defs>
        <path id="DejaVuSans-51" d="M 2522 4238 
Q 1834 4238 1429 3725 
Q 1025 3213 1025 2328 
Q 1025 1447 1429 934 
Q 1834 422 2522 422 
Q 3209 422 3611 934 
Q 4013 1447 4013 2328 
Q 4013 3213 3611 3725 
Q 3209 4238 2522 4238 
z
M 3406 84 
L 4238 -825 
L 3475 -825 
L 2784 -78 
Q 2681 -84 2626 -87 
Q 2572 -91 2522 -91 
Q 1538 -91 948 567 
Q 359 1225 359 2328 
Q 359 3434 948 4092 
Q 1538 4750 2522 4750 
Q 3503 4750 4090 4092 
Q 4678 3434 4678 2328 
Q 4678 1516 4351 937 
Q 4025 359 3406 84 
z
" transform="scale(0.015625)"/>
        <path id="DejaVuSans-34" d="M 2419 4116 
L 825 1625 
L 2419 1625 
L 2419 4116 
z
M 2253 4666 
L 3047 4666 
L 3047 1625 
L 3713 1625 
L 3713 1100 
L 3047 1100 
L 3047 0 
L 2419 0 
L 2419 1100 
L 313 1100 
L 313 1709 
L 2253 4666 
z
" transform="scale(0.015625)"/>
       </defs>
       <use xlink:href="#DejaVuSans-51"/>
       <use xlink:href="#DejaVuSans-34" transform="translate(78.710938 0)"/>
      </g>
     </g>
    </g>
    <g id="xtick_2">
     <g id="line2d_3">
      <path d="M 267.622345 471.089362 
L 267.622345 24.156562 
" clip-path="url(#p92dc87df39)" style="fill: none; stroke-dasharray: 1.85,0.8; stroke-dashoffset: 0; stroke: #b0b0b0; stroke-opacity: 0.7; stroke-width: 0.5"/>
     </g>
     <g id="line2d_4">
      <g>
       <use xlink:href="#m3e8bf3b87f" x="267.622345" y="471.089362" style="stroke: #000000; stroke-width: 0.8"/>
      </g>
     </g>
     <g id="text_2">
      <!-- 2023 -->
      <g transform="translate(245.989845 491.006706) scale(0.17 -0.17)">
       <defs>
        <path id="DejaVuSans-33" d="M 2597 2516 
Q 3050 2419 3304 2112 
Q 3559 1806 3559 1356 
Q 3559 666 3084 287 
Q 2609 -91 1734 -91 
Q 1441 -91 1130 -33 
Q 819 25 488 141 
L 488 750 
Q 750 597 1062 519 
Q 1375 441 1716 441 
Q 2309 441 2620 675 
Q 2931 909 2931 1356 
Q 2931 1769 2642 2001 
Q 2353 2234 1838 2234 
L 1294 2234 
L 1294 2753 
L 1863 2753 
Q 2328 2753 2575 2939 
Q 2822 3125 2822 3475 
Q 2822 3834 2567 4026 
Q 2313 4219 1838 4219 
Q 1578 4219 1281 4162 
Q 984 4106 628 3988 
L 628 4550 
Q 988 4650 1302 4700 
Q 1616 4750 1894 4750 
Q 2613 4750 3031 4423 
Q 3450 4097 3450 3541 
Q 3450 3153 3228 2886 
Q 3006 2619 2597 2516 
z
" transform="scale(0.015625)"/>
       </defs>
       <use xlink:href="#DejaVuSans-32"/>
       <use xlink:href="#DejaVuSans-30" transform="translate(63.623047 0)"/>
       <use xlink:href="#DejaVuSans-32" transform="translate(127.246094 0)"/>
       <use xlink:href="#DejaVuSans-33" transform="translate(190.869141 0)"/>
      </g>
      <!-- Q4 -->
      <g transform="translate(255.523126 510.042987) scale(0.17 -0.17)">
       <use xlink:href="#DejaVuSans-51"/>
       <use xlink:href="#DejaVuSans-34" transform="translate(78.710938 0)"/>
      </g>
     </g>
    </g>
    <g id="xtick_3">
     <g id="line2d_5">
      <path d="M 368.267318 471.089362 
L 368.267318 24.156562 
" clip-path="url(#p92dc87df39)" style="fill: none; stroke-dasharray: 1.85,0.8; stroke-dashoffset: 0; stroke: #b0b0b0; stroke-opacity: 0.7; stroke-width: 0.5"/>
     </g>
     <g id="line2d_6">
      <g>
       <use xlink:href="#m3e8bf3b87f" x="368.267318" y="471.089362" style="stroke: #000000; stroke-width: 0.8"/>
      </g>
     </g>
     <g id="text_3">
      <!-- 2024 -->
      <g transform="translate(346.634818 491.006706) scale(0.17 -0.17)">
       <use xlink:href="#DejaVuSans-32"/>
       <use xlink:href="#DejaVuSans-30" transform="translate(63.623047 0)"/>
       <use xlink:href="#DejaVuSans-32" transform="translate(127.246094 0)"/>
       <use xlink:href="#DejaVuSans-34" transform="translate(190.869141 0)"/>
      </g>
      <!-- Q2 -->
      <g transform="translate(356.168099 510.042987) scale(0.17 -0.17)">
       <use xlink:href="#DejaVuSans-51"/>
       <use xlink:href="#DejaVuSans-32" transform="translate(78.710938 0)"/>
      </g>
     </g>
    </g>
    <g id="xtick_4">
     <g id="line2d_7">
      <path d="M 419.142799 471.089362 
L 419.142799 24.156562 
" clip-path="url(#p92dc87df39)" style="fill: none; stroke-dasharray: 1.85,0.8; stroke-dashoffset: 0; stroke: #b0b0b0; stroke-opacity: 0.7; stroke-width: 0.5"/>
     </g>
     <g id="line2d_8">
      <g>
       <use xlink:href="#m3e8bf3b87f" x="419.142799" y="471.089362" style="stroke: #000000; stroke-width: 0.8"/>
      </g>
     </g>
     <g id="text_4">
      <!-- 2024 -->
      <g transform="translate(397.510299 491.006706) scale(0.17 -0.17)">
       <use xlink:href="#DejaVuSans-32"/>
       <use xlink:href="#DejaVuSans-30" transform="translate(63.623047 0)"/>
       <use xlink:href="#DejaVuSans-32" transform="translate(127.246094 0)"/>
       <use xlink:href="#DejaVuSans-34" transform="translate(190.869141 0)"/>
      </g>
      <!-- Q3 -->
      <g transform="translate(407.04358 510.042987) scale(0.17 -0.17)">
       <use xlink:href="#DejaVuSans-51"/>
       <use xlink:href="#DejaVuSans-33" transform="translate(78.710938 0)"/>
      </g>
     </g>
    </g>
    <g id="xtick_5">
     <g id="line2d_9">
      <path d="M 470.01828 471.089362 
L 470.01828 24.156562 
" clip-path="url(#p92dc87df39)" style="fill: none; stroke-dasharray: 1.85,0.8; stroke-dashoffset: 0; stroke: #b0b0b0; stroke-opacity: 0.7; stroke-width: 0.5"/>
     </g>
     <g id="line2d_10">
      <g>
       <use xlink:href="#m3e8bf3b87f" x="470.01828" y="471.089362" style="stroke: #000000; stroke-width: 0.8"/>
      </g>
     </g>
     <g id="text_5">
      <!-- 2024 -->
      <g transform="translate(448.38578 491.006706) scale(0.17 -0.17)">
       <use xlink:href="#DejaVuSans-32"/>
       <use xlink:href="#DejaVuSans-30" transform="translate(63.623047 0)"/>
       <use xlink:href="#DejaVuSans-32" transform="translate(127.246094 0)"/>
       <use xlink:href="#DejaVuSans-34" transform="translate(190.869141 0)"/>
      </g>
      <!-- Q4 -->
      <g transform="translate(457.919062 510.042987) scale(0.17 -0.17)">
       <use xlink:href="#DejaVuSans-51"/>
       <use xlink:href="#DejaVuSans-34" transform="translate(78.710938 0)"/>
      </g>
     </g>
    </g>
    <g id="xtick_6">
     <g id="line2d_11">
      <path d="M 519.787773 471.089362 
L 519.787773 24.156562 
" clip-path="url(#p92dc87df39)" style="fill: none; stroke-dasharray: 1.85,0.8; stroke-dashoffset: 0; stroke: #b0b0b0; stroke-opacity: 0.7; stroke-width: 0.5"/>
     </g>
     <g id="line2d_12">
      <g>
       <use xlink:href="#m3e8bf3b87f" x="519.787773" y="471.089362" style="stroke: #000000; stroke-width: 0.8"/>
      </g>
     </g>
     <g id="text_6">
      <!-- 2025 -->
      <g transform="translate(498.155273 491.006706) scale(0.17 -0.17)">
       <defs>
        <path id="DejaVuSans-35" d="M 691 4666 
L 3169 4666 
L 3169 4134 
L 1269 4134 
L 1269 2991 
Q 1406 3038 1543 3061 
Q 1681 3084 1819 3084 
Q 2600 3084 3056 2656 
Q 3513 2228 3513 1497 
Q 3513 744 3044 326 
Q 2575 -91 1722 -91 
Q 1428 -91 1123 -41 
Q 819 9 494 109 
L 494 744 
Q 775 591 1075 516 
Q 1375 441 1709 441 
Q 2250 441 2565 725 
Q 2881 1009 2881 1497 
Q 2881 1984 2565 2268 
Q 2250 2553 1709 2553 
Q 1456 2553 1204 2497 
Q 953 2441 691 2322 
L 691 4666 
z
" transform="scale(0.015625)"/>
       </defs>
       <use xlink:href="#DejaVuSans-32"/>
       <use xlink:href="#DejaVuSans-30" transform="translate(63.623047 0)"/>
       <use xlink:href="#DejaVuSans-32" transform="translate(127.246094 0)"/>
       <use xlink:href="#DejaVuSans-35" transform="translate(190.869141 0)"/>
      </g>
      <!-- Q1 -->
      <g transform="translate(507.688554 510.042987) scale(0.17 -0.17)">
       <defs>
        <path id="DejaVuSans-31" d="M 794 531 
L 1825 531 
L 1825 4091 
L 703 3866 
L 703 4441 
L 1819 4666 
L 2450 4666 
L 2450 531 
L 3481 531 
L 3481 0 
L 794 0 
L 794 531 
z
" transform="scale(0.015625)"/>
       </defs>
       <use xlink:href="#DejaVuSans-51"/>
       <use xlink:href="#DejaVuSans-31" transform="translate(78.710938 0)"/>
      </g>
     </g>
    </g>
    <g id="xtick_7">
     <g id="line2d_13">
      <path d="M 570.110259 471.089362 
L 570.110259 24.156562 
" clip-path="url(#p92dc87df39)" style="fill: none; stroke-dasharray: 1.85,0.8; stroke-dashoffset: 0; stroke: #b0b0b0; stroke-opacity: 0.7; stroke-width: 0.5"/>
     </g>
     <g id="line2d_14">
      <g>
       <use xlink:href="#m3e8bf3b87f" x="570.110259" y="471.089362" style="stroke: #000000; stroke-width: 0.8"/>
      </g>
     </g>
     <g id="text_7">
      <!-- 2025 -->
      <g transform="translate(548.477759 491.006706) scale(0.17 -0.17)">
       <use xlink:href="#DejaVuSans-32"/>
       <use xlink:href="#DejaVuSans-30" transform="translate(63.623047 0)"/>
       <use xlink:href="#DejaVuSans-32" transform="translate(127.246094 0)"/>
       <use xlink:href="#DejaVuSans-35" transform="translate(190.869141 0)"/>
      </g>
      <!-- Q2 -->
      <g transform="translate(558.011041 510.042987) scale(0.17 -0.17)">
       <use xlink:href="#DejaVuSans-51"/>
       <use xlink:href="#DejaVuSans-32" transform="translate(78.710938 0)"/>
      </g>
     </g>
    </g>
    <g id="xtick_8">
     <g id="line2d_15">
      <path d="M 620.985741 471.089362 
L 620.985741 24.156562 
" clip-path="url(#p92dc87df39)" style="fill: none; stroke-dasharray: 1.85,0.8; stroke-dashoffset: 0; stroke: #b0b0b0; stroke-opacity: 0.7; stroke-width: 0.5"/>
     </g>
     <g id="line2d_16">
      <g>
       <use xlink:href="#m3e8bf3b87f" x="620.985741" y="471.089362" style="stroke: #000000; stroke-width: 0.8"/>
      </g>
     </g>
     <g id="text_8">
      <!-- 2025 -->
      <g transform="translate(599.353241 491.006706) scale(0.17 -0.17)">
       <use xlink:href="#DejaVuSans-32"/>
       <use xlink:href="#DejaVuSans-30" transform="translate(63.623047 0)"/>
       <use xlink:href="#DejaVuSans-32" transform="translate(127.246094 0)"/>
       <use xlink:href="#DejaVuSans-35" transform="translate(190.869141 0)"/>
      </g>
      <!-- Q3 -->
      <g transform="translate(608.886522 510.042987) scale(0.17 -0.17)">
       <use xlink:href="#DejaVuSans-51"/>
       <use xlink:href="#DejaVuSans-33" transform="translate(78.710938 0)"/>
      </g>
     </g>
    </g>
    <g id="xtick_9">
     <g id="line2d_17">
      <path d="M 671.861222 471.089362 
L 671.861222 24.156562 
" clip-path="url(#p92dc87df39)" style="fill: none; stroke-dasharray: 1.85,0.8; stroke-dashoffset: 0; stroke: #b0b0b0; stroke-opacity: 0.7; stroke-width: 0.5"/>
     </g>
     <g id="line2d_18">
      <g>
       <use xlink:href="#m3e8bf3b87f" x="671.861222" y="471.089362" style="stroke: #000000; stroke-width: 0.8"/>
      </g>
     </g>
     <g id="text_9">
      <!-- 2025 -->
      <g transform="translate(650.228722 491.006706) scale(0.17 -0.17)">
       <use xlink:href="#DejaVuSans-32"/>
       <use xlink:href="#DejaVuSans-30" transform="translate(63.623047 0)"/>
       <use xlink:href="#DejaVuSans-32" transform="translate(127.246094 0)"/>
       <use xlink:href="#DejaVuSans-35" transform="translate(190.869141 0)"/>
      </g>
      <!-- Q4 -->
      <g transform="translate(659.762003 510.042987) scale(0.17 -0.17)">
       <use xlink:href="#DejaVuSans-51"/>
       <use xlink:href="#DejaVuSans-34" transform="translate(78.710938 0)"/>
      </g>
     </g>
    </g>
   </g>
   <g id="matplotlib.axis_2">
    <g id="ytick_1">
     <g id="line2d_19">
      <path d="M 35.475313 452.165854 
L 702.165312 452.165854 
" clip-path="url(#p92dc87df39)" style="fill: none; stroke-dasharray: 1.85,0.8; stroke-dashoffset: 0; stroke: #b0b0b0; stroke-opacity: 0.7; stroke-width: 0.5"/>
     </g>
     <g id="line2d_20">
      <defs>
       <path id="m425d369ad5" d="M 0 0 
L -3.5 0 
" style="stroke: #000000; stroke-width: 0.8"/>
      </defs>
      <g>
       <use xlink:href="#m425d369ad5" x="35.475313" y="452.165854" style="stroke: #000000; stroke-width: 0.8"/>
      </g>
     </g>
     <g id="text_10">
      <!-- 0.0 -->
      <g transform="translate(1.44 458.624526) scale(0.17 -0.17)">
       <defs>
        <path id="DejaVuSans-2e" d="M 684 794 
L 1344 794 
L 1344 0 
L 684 0 
L 684 794 
z
" transform="scale(0.015625)"/>
       </defs>
       <use xlink:href="#DejaVuSans-30"/>
       <use xlink:href="#DejaVuSans-2e" transform="translate(63.623047 0)"/>
       <use xlink:href="#DejaVuSans-30" transform="translate(95.410156 0)"/>
      </g>
     </g>
    </g>
    <g id="ytick_2">
     <g id="line2d_21">
      <path d="M 35.475313 383.207273 
L 702.165312 383.207273 
" clip-path="url(#p92dc87df39)" style="fill: none; stroke-dasharray: 1.85,0.8; stroke-dashoffset: 0; stroke: #b0b0b0; stroke-opacity: 0.7; stroke-width: 0.5"/>
     </g>
     <g id="line2d_22">
      <g>
       <use xlink:href="#m425d369ad5" x="35.475313" y="383.207273" style="stroke: #000000; stroke-width: 0.8"/>
      </g>
     </g>
     <g id="text_11">
      <!-- 0.5 -->
      <g transform="translate(1.44 389.665945) scale(0.17 -0.17)">
       <use xlink:href="#DejaVuSans-30"/>
       <use xlink:href="#DejaVuSans-2e" transform="translate(63.623047 0)"/>
       <use xlink:href="#DejaVuSans-35" transform="translate(95.410156 0)"/>
      </g>
     </g>
    </g>
    <g id="ytick_3">
     <g id="line2d_23">
      <path d="M 35.475313 314.248692 
L 702.165312 314.248692 
" clip-path="url(#p92dc87df39)" style="fill: none; stroke-dasharray: 1.85,0.8; stroke-dashoffset: 0; stroke: #b0b0b0; stroke-opacity: 0.7; stroke-width: 0.5"/>
     </g>
     <g id="line2d_24">
      <g>
       <use xlink:href="#m425d369ad5" x="35.475313" y="314.248692" style="stroke: #000000; stroke-width: 0.8"/>
      </g>
     </g>
     <g id="text_12">
      <!-- 1.0 -->
      <g transform="translate(1.44 320.707364) scale(0.17 -0.17)">
       <use xlink:href="#DejaVuSans-31"/>
       <use xlink:href="#DejaVuSans-2e" transform="translate(63.623047 0)"/>
       <use xlink:href="#DejaVuSans-30" transform="translate(95.410156 0)"/>
      </g>
     </g>
    </g>
    <g id="ytick_4">
     <g id="line2d_25">
      <path d="M 35.475313 245.290111 
L 702.165312 245.290111 
" clip-path="url(#p92dc87df39)" style="fill: none; stroke-dasharray: 1.85,0.8; stroke-dashoffset: 0; stroke: #b0b0b0; stroke-opacity: 0.7; stroke-width: 0.5"/>
     </g>
     <g id="line2d_26">
      <g>
       <use xlink:href="#m425d369ad5" x="35.475313" y="245.290111" style="stroke: #000000; stroke-width: 0.8"/>
      </g>
     </g>
     <g id="text_13">
      <!-- 1.5 -->
      <g transform="translate(1.44 251.748783) scale(0.17 -0.17)">
       <use xlink:href="#DejaVuSans-31"/>
       <use xlink:href="#DejaVuSans-2e" transform="translate(63.623047 0)"/>
       <use xlink:href="#DejaVuSans-35" transform="translate(95.410156 0)"/>
      </g>
     </g>
    </g>
    <g id="ytick_5">
     <g id="line2d_27">
      <path d="M 35.475313 176.33153 
L 702.165312 176.33153 
" clip-path="url(#p92dc87df39)" style="fill: none; stroke-dasharray: 1.85,0.8; stroke-dashoffset: 0; stroke: #b0b0b0; stroke-opacity: 0.7; stroke-width: 0.5"/>
     </g>
     <g id="line2d_28">
      <g>
       <use xlink:href="#m425d369ad5" x="35.475313" y="176.33153" style="stroke: #000000; stroke-width: 0.8"/>
      </g>
     </g>
     <g id="text_14">
      <!-- 2.0 -->
      <g transform="translate(1.44 182.790202) scale(0.17 -0.17)">
       <use xlink:href="#DejaVuSans-32"/>
       <use xlink:href="#DejaVuSans-2e" transform="translate(63.623047 0)"/>
       <use xlink:href="#DejaVuSans-30" transform="translate(95.410156 0)"/>
      </g>
     </g>
    </g>
    <g id="ytick_6">
     <g id="line2d_29">
      <path d="M 35.475313 107.372949 
L 702.165312 107.372949 
" clip-path="url(#p92dc87df39)" style="fill: none; stroke-dasharray: 1.85,0.8; stroke-dashoffset: 0; stroke: #b0b0b0; stroke-opacity: 0.7; stroke-width: 0.5"/>
     </g>
     <g id="line2d_30">
      <g>
       <use xlink:href="#m425d369ad5" x="35.475313" y="107.372949" style="stroke: #000000; stroke-width: 0.8"/>
      </g>
     </g>
     <g id="text_15">
      <!-- 2.5 -->
      <g transform="translate(1.44 113.831621) scale(0.17 -0.17)">
       <use xlink:href="#DejaVuSans-32"/>
       <use xlink:href="#DejaVuSans-2e" transform="translate(63.623047 0)"/>
       <use xlink:href="#DejaVuSans-35" transform="translate(95.410156 0)"/>
      </g>
     </g>
    </g>
    <g id="ytick_7">
     <g id="line2d_31">
      <path d="M 35.475313 38.414368 
L 702.165312 38.414368 
" clip-path="url(#p92dc87df39)" style="fill: none; stroke-dasharray: 1.85,0.8; stroke-dashoffset: 0; stroke: #b0b0b0; stroke-opacity: 0.7; stroke-width: 0.5"/>
     </g>
     <g id="line2d_32">
      <g>
       <use xlink:href="#m425d369ad5" x="35.475313" y="38.414368" style="stroke: #000000; stroke-width: 0.8"/>
      </g>
     </g>
     <g id="text_16">
      <!-- 3.0 -->
      <g transform="translate(1.44 44.87304) scale(0.17 -0.17)">
       <use xlink:href="#DejaVuSans-33"/>
       <use xlink:href="#DejaVuSans-2e" transform="translate(63.623047 0)"/>
       <use xlink:href="#DejaVuSans-30" transform="translate(95.410156 0)"/>
      </g>
     </g>
    </g>
    <g id="text_17">
     <!-- 1e11 -->
     <g transform="translate(35.475313 21.156562) scale(0.1 -0.1)">
      <defs>
       <path id="DejaVuSans-65" d="M 3597 1894 
L 3597 1613 
L 953 1613 
Q 991 1019 1311 708 
Q 1631 397 2203 397 
Q 2534 397 2845 478 
Q 3156 559 3463 722 
L 3463 178 
Q 3153 47 2828 -22 
Q 2503 -91 2169 -91 
Q 1331 -91 842 396 
Q 353 884 353 1716 
Q 353 2575 817 3079 
Q 1281 3584 2069 3584 
Q 2775 3584 3186 3129 
Q 3597 2675 3597 1894 
z
M 3022 2063 
Q 3016 2534 2758 2815 
Q 2500 3097 2075 3097 
Q 1594 3097 1305 2825 
Q 1016 2553 972 2059 
L 3022 2063 
z
" transform="scale(0.015625)"/>
      </defs>
      <use xlink:href="#DejaVuSans-31"/>
      <use xlink:href="#DejaVuSans-65" transform="translate(63.623047 0)"/>
      <use xlink:href="#DejaVuSans-31" transform="translate(125.146484 0)"/>
      <use xlink:href="#DejaVuSans-31" transform="translate(188.769531 0)"/>
     </g>
    </g>
   </g>
   <g id="line2d_33">
    <path d="M 65.779403 44.47169 
L 267.622345 106.607509 
" clip-path="url(#p92dc87df39)" style="fill: none; stroke: #808080; stroke-opacity: 0.5; stroke-linecap: square"/>
    <defs>
     <path id="m5f52af84cd" d="M 0 5 
C 1.326016 5 2.597899 4.473168 3.535534 3.535534 
C 4.473168 2.597899 5 1.326016 5 0 
C 5 -1.326016 4.473168 -2.597899 3.535534 -3.535534 
C 2.597899 -4.473168 1.326016 -5 0 -5 
C -1.326016 -5 -2.597899 -4.473168 -3.535534 -3.535534 
C -4.473168 -2.597899 -5 -1.326016 -5 0 
C -5 1.326016 -4.473168 2.597899 -3.535534 3.535534 
C -2.597899 4.473168 -1.326016 5 0 5 
z
" style="stroke: #808080; stroke-opacity: 0.5"/>
    </defs>
    <g clip-path="url(#p92dc87df39)">
     <use xlink:href="#m5f52af84cd" x="65.779403" y="44.47169" style="fill: #808080; fill-opacity: 0.5; stroke: #808080; stroke-opacity: 0.5"/>
     <use xlink:href="#m5f52af84cd" x="267.622345" y="106.607509" style="fill: #808080; fill-opacity: 0.5; stroke: #808080; stroke-opacity: 0.5"/>
    </g>
   </g>
   <g id="patch_3">
    <path d="M 35.475313 471.089362 
L 35.475313 24.156562 
" style="fill: none; stroke: #000000; stroke-width: 0.8; stroke-linejoin: miter; stroke-linecap: square"/>
   </g>
   <g id="patch_4">
    <path d="M 702.165312 471.089362 
L 702.165312 24.156562 
" style="fill: none; stroke: #000000; stroke-width: 0.8; stroke-linejoin: miter; stroke-linecap: square"/>
   </g>
   <g id="patch_5">
    <path d="M 35.475313 471.089362 
L 702.165313 471.089362 
" style="fill: none; stroke: #000000; stroke-width: 0.8; stroke-linejoin: miter; stroke-linecap: square"/>
   </g>
   <g id="patch_6">
    <path d="M 35.475313 24.156562 
L 702.165313 24.156562 
" style="fill: none; stroke: #000000; stroke-width: 0.8; stroke-linejoin: miter; stroke-linecap: square"/>
   </g>
   <g id="text_18">
    <!-- flow_COGS -->
    <g transform="translate(302.669062 18.156562) scale(0.22 -0.22)">
     <defs>
      <path id="DejaVuSans-Bold-66" d="M 2841 4863 
L 2841 4128 
L 2222 4128 
Q 1984 4128 1890 4042 
Q 1797 3956 1797 3744 
L 1797 3500 
L 2753 3500 
L 2753 2700 
L 1797 2700 
L 1797 0 
L 678 0 
L 678 2700 
L 122 2700 
L 122 3500 
L 678 3500 
L 678 3744 
Q 678 4316 997 4589 
Q 1316 4863 1984 4863 
L 2841 4863 
z
" transform="scale(0.015625)"/>
      <path id="DejaVuSans-Bold-6c" d="M 538 4863 
L 1656 4863 
L 1656 0 
L 538 0 
L 538 4863 
z
" transform="scale(0.015625)"/>
      <path id="DejaVuSans-Bold-6f" d="M 2203 2784 
Q 1831 2784 1636 2517 
Q 1441 2250 1441 1747 
Q 1441 1244 1636 976 
Q 1831 709 2203 709 
Q 2569 709 2762 976 
Q 2956 1244 2956 1747 
Q 2956 2250 2762 2517 
Q 2569 2784 2203 2784 
z
M 2203 3584 
Q 3106 3584 3614 3096 
Q 4122 2609 4122 1747 
Q 4122 884 3614 396 
Q 3106 -91 2203 -91 
Q 1297 -91 786 396 
Q 275 884 275 1747 
Q 275 2609 786 3096 
Q 1297 3584 2203 3584 
z
" transform="scale(0.015625)"/>
      <path id="DejaVuSans-Bold-77" d="M 225 3500 
L 1313 3500 
L 1900 1088 
L 2491 3500 
L 3425 3500 
L 4013 1113 
L 4603 3500 
L 5691 3500 
L 4769 0 
L 3547 0 
L 2956 2406 
L 2369 0 
L 1147 0 
L 225 3500 
z
" transform="scale(0.015625)"/>
      <path id="DejaVuSans-Bold-5f" d="M 3200 -916 
L 3200 -1509 
L 0 -1509 
L 0 -916 
L 3200 -916 
z
" transform="scale(0.015625)"/>
      <path id="DejaVuSans-Bold-43" d="M 4288 256 
Q 3956 84 3597 -3 
Q 3238 -91 2847 -91 
Q 1681 -91 1000 561 
Q 319 1213 319 2328 
Q 319 3447 1000 4098 
Q 1681 4750 2847 4750 
Q 3238 4750 3597 4662 
Q 3956 4575 4288 4403 
L 4288 3438 
Q 3953 3666 3628 3772 
Q 3303 3878 2944 3878 
Q 2300 3878 1931 3465 
Q 1563 3053 1563 2328 
Q 1563 1606 1931 1193 
Q 2300 781 2944 781 
Q 3303 781 3628 887 
Q 3953 994 4288 1222 
L 4288 256 
z
" transform="scale(0.015625)"/>
      <path id="DejaVuSans-Bold-4f" d="M 2719 3878 
Q 2169 3878 1866 3472 
Q 1563 3066 1563 2328 
Q 1563 1594 1866 1187 
Q 2169 781 2719 781 
Q 3272 781 3575 1187 
Q 3878 1594 3878 2328 
Q 3878 3066 3575 3472 
Q 3272 3878 2719 3878 
z
M 2719 4750 
Q 3844 4750 4481 4106 
Q 5119 3463 5119 2328 
Q 5119 1197 4481 553 
Q 3844 -91 2719 -91 
Q 1597 -91 958 553 
Q 319 1197 319 2328 
Q 319 3463 958 4106 
Q 1597 4750 2719 4750 
z
" transform="scale(0.015625)"/>
      <path id="DejaVuSans-Bold-47" d="M 4781 347 
Q 4331 128 3847 18 
Q 3363 -91 2847 -91 
Q 1681 -91 1000 561 
Q 319 1213 319 2328 
Q 319 3456 1012 4103 
Q 1706 4750 2913 4750 
Q 3378 4750 3804 4662 
Q 4231 4575 4609 4403 
L 4609 3438 
Q 4219 3659 3833 3768 
Q 3447 3878 3059 3878 
Q 2341 3878 1952 3476 
Q 1563 3075 1563 2328 
Q 1563 1588 1938 1184 
Q 2313 781 3003 781 
Q 3191 781 3352 804 
Q 3513 828 3641 878 
L 3641 1784 
L 2906 1784 
L 2906 2591 
L 4781 2591 
L 4781 347 
z
" transform="scale(0.015625)"/>
      <path id="DejaVuSans-Bold-53" d="M 3834 4519 
L 3834 3531 
Q 3450 3703 3084 3790 
Q 2719 3878 2394 3878 
Q 1963 3878 1756 3759 
Q 1550 3641 1550 3391 
Q 1550 3203 1689 3098 
Q 1828 2994 2194 2919 
L 2706 2816 
Q 3484 2659 3812 2340 
Q 4141 2022 4141 1434 
Q 4141 663 3683 286 
Q 3225 -91 2284 -91 
Q 1841 -91 1394 -6 
Q 947 78 500 244 
L 500 1259 
Q 947 1022 1364 901 
Q 1781 781 2169 781 
Q 2563 781 2772 912 
Q 2981 1044 2981 1288 
Q 2981 1506 2839 1625 
Q 2697 1744 2272 1838 
L 1806 1941 
Q 1106 2091 782 2419 
Q 459 2747 459 3303 
Q 459 4000 909 4375 
Q 1359 4750 2203 4750 
Q 2588 4750 2994 4692 
Q 3400 4634 3834 4519 
z
" transform="scale(0.015625)"/>
     </defs>
     <use xlink:href="#DejaVuSans-Bold-66"/>
     <use xlink:href="#DejaVuSans-Bold-6c" transform="translate(43.505859 0)"/>
     <use xlink:href="#DejaVuSans-Bold-6f" transform="translate(77.783203 0)"/>
     <use xlink:href="#DejaVuSans-Bold-77" transform="translate(146.484375 0)"/>
     <use xlink:href="#DejaVuSans-Bold-5f" transform="translate(238.867188 0)"/>
     <use xlink:href="#DejaVuSans-Bold-43" transform="translate(288.867188 0)"/>
     <use xlink:href="#DejaVuSans-Bold-4f" transform="translate(362.255859 0)"/>
     <use xlink:href="#DejaVuSans-Bold-47" transform="translate(447.265625 0)"/>
     <use xlink:href="#DejaVuSans-Bold-53" transform="translate(529.345703 0)"/>
    </g>
   </g>
   <g id="PathCollection_6">
    <defs>
     <path id="mf1788bbbae" d="M -5.477226 5.477226 
L 5.477226 -5.477226 
M -5.477226 -5.477226 
L 5.477226 5.477226 
" style="stroke: #000000; stroke-width: 2"/>
    </defs>
    <g clip-path="url(#p92dc87df39)">
     <use xlink:href="#mf1788bbbae" x="470.01828" y="364.159534" style="stroke: #000000; stroke-width: 2"/>
     <use xlink:href="#mf1788bbbae" x="519.787773" y="365.866948" style="stroke: #000000; stroke-width: 2"/>
     <use xlink:href="#mf1788bbbae" x="570.110259" y="367.305424" style="stroke: #000000; stroke-width: 2"/>
     <use xlink:href="#mf1788bbbae" x="620.985741" y="363.213422" style="stroke: #000000; stroke-width: 2"/>
     <use xlink:href="#mf1788bbbae" x="671.861222" y="363.809224" style="stroke: #000000; stroke-width: 2"/>
    </g>
   </g>
  </g>
 </g>
 <defs>
  <clipPath id="p92dc87df39">
   <rect x="35.475313" y="24.156562" width="666.69" height="446.9328"/>
  </clipPath>
 </defs>
</svg>
